<svg width="256" height="256" viewBox="0 0 256 256" fill="none" xmlns="http://www.w3.org/2000/svg">
<g filter="url(#filter0_d_43_10)">
<mask id="mask0_43_10" style="mask-type:alpha" maskUnits="userSpaceOnUse" x="9" y="10" width="238" height="235">
<path fill-rule="evenodd" clip-rule="evenodd" d="M246.073 83.1885C246.073 80.3988 246.074 77.6087 246.057 74.8187C246.043 72.4684 246.016 70.1187 245.952 67.7696C245.813 62.6495 245.51 57.4855 244.594 52.4225C243.666 47.2864 242.151 42.5063 239.763 37.8397C237.415 33.2529 234.349 29.0557 230.689 25.417C227.031 21.7782 222.812 18.7283 218.202 16.3935C213.507 14.0164 208.699 12.5088 203.532 11.5857C198.444 10.6765 193.253 10.375 188.108 10.2367C185.746 10.1731 183.383 10.1463 181.021 10.1318C178.215 10.1146 175.41 10.1161 172.605 10.1161L140.036 10H115.676L83.6828 10.1161C80.8723 10.1161 78.0618 10.1146 75.2512 10.1318C72.8835 10.1463 70.5169 10.1731 68.15 10.2367C62.9929 10.375 57.7906 10.6768 52.6903 11.5871C47.5166 12.51 42.7008 14.0169 38.0003 16.3923C33.3797 18.7275 29.1517 21.7776 25.4858 25.417C21.8204 29.0555 18.7479 33.2518 16.3959 37.8377C14.0012 42.5066 12.4829 47.2896 11.5527 52.4285C10.6367 57.4895 10.3333 62.6518 10.1937 67.7696C10.1301 70.119 10.1026 72.4687 10.0882 74.8187C10.071 77.609 9.92688 81.075 9.92688 83.865L9.92774 115.262L9.92688 139.763L10.0725 171.827C10.0725 174.621 10.0713 177.414 10.0882 180.208C10.1026 182.562 10.1301 184.914 10.194 187.267C10.3333 192.394 10.6373 197.565 11.5541 202.635C12.4841 207.778 14.0021 212.565 16.3948 217.237C18.7471 221.831 21.8201 226.033 25.4858 229.677C29.1515 233.321 33.3783 236.375 37.998 238.713C42.7014 241.093 47.5194 242.603 52.6963 243.527C57.7943 244.438 62.9949 244.74 68.15 244.878C70.5169 244.942 72.8838 244.969 75.2515 244.983C78.0621 245 80.8723 244.999 83.6828 244.999L115.965 245H140.385L172.605 244.999C175.41 244.999 178.215 245 181.021 244.983C183.383 244.969 185.746 244.942 188.108 244.878C193.255 244.74 198.447 244.437 203.538 243.526C208.702 242.602 213.508 241.093 218.2 238.714C222.811 236.376 227.031 233.322 230.689 229.677C234.348 226.034 237.414 221.832 239.762 217.239C242.152 212.564 243.667 207.775 244.596 202.629C245.51 197.561 245.813 192.392 245.952 187.267C246.016 184.914 246.043 182.561 246.057 180.208C246.075 177.414 246.073 174.621 246.073 171.827C246.073 171.827 246.072 140.329 246.072 139.763V115.236C246.072 114.818 246.073 83.1885 246.073 83.1885Z" fill="#D9D9D9"/>
</mask>
<g mask="url(#mask0_43_10)">
<path d="M147.56 29.1296H141.04V35.6494H147.56V29.1296Z" fill="#FF9E07"/>
<path d="M160.599 35.6494H154.079V42.1692H160.599V35.6494Z" fill="#FF9E07"/>
<path d="M30.2028 74.7683H23.683V81.2881H30.2028V74.7683Z" fill="#DF7126"/>
<path d="M154.079 74.7683H147.56V81.2881H154.079V74.7683Z" fill="#FFC907"/>
<path d="M167.119 81.2881H160.599V87.8079H167.119V81.2881Z" fill="#FF9E07"/>
<path d="M180.159 81.2881H173.639V87.8079H180.159V81.2881Z" fill="#FF9E07"/>
<path d="M180.159 87.8079H173.639V94.3277H180.159V87.8079Z" fill="#FFC907"/>
<path d="M186.678 87.8079H180.159V94.3277H186.678V87.8079Z" fill="#FF9E07"/>
<path d="M82.3613 94.3277H75.8415V100.848H82.3613V94.3277Z" fill="#222034"/>
<path d="M180.159 94.3277H173.639V100.848H180.159V94.3277Z" fill="#161522"/>
<path d="M232.317 133.447H225.797V139.966H232.317V133.447Z" fill="#FFC907"/>
<path d="M206.238 139.966H199.718V146.486H206.238V139.966Z" fill="#C87E0D"/>
<path d="M212.758 139.966H206.238V146.486H212.758V139.966Z" fill="#FFC907"/>
<path d="M219.277 146.486H212.758V153.006H219.277V146.486Z" fill="#FFC907"/>
<path d="M206.238 159.526H199.718V166.046H206.238V159.526Z" fill="#C87E0D"/>
<path d="M75.8415 166.046H69.3217V172.566H75.8415V166.046Z" fill="#A76A11"/>
<path d="M82.3613 166.046H75.8415V172.566H82.3613V166.046Z" fill="#934F25"/>
<path d="M193.198 166.046H186.678V172.566H193.198V166.046Z" fill="#C87E0D"/>
<path d="M101.921 185.605H95.401V192.125H101.921V185.605Z" fill="#FF9E07"/>
<path d="M154.079 185.605H147.56V192.125H154.079V185.605Z" fill="#C87E0D"/>
<path d="M160.599 185.605H154.079V192.125H160.599V185.605Z" fill="#AF5B26"/>
<path d="M121.48 192.125H114.96V198.645H121.48V192.125Z" fill="#AF5B26"/>
<path d="M128 198.645H121.48V205.165H128V198.645Z" fill="#C87E0D"/>
<path d="M128 205.165H121.48V211.684H128V205.165Z" fill="#FF9E07"/>
<path d="M154.079 211.684H147.56V218.204H154.079V211.684Z" fill="#FF9E07"/>
<path d="M147.56 224.724H141.04V231.244H147.56V224.724Z" fill="#FF9E07"/>
<path d="M43.2424 81.2881H36.7226V87.8079V94.3277H43.2424H49.7623V87.8079H43.2424V81.2881Z" fill="#DF7126"/>
<path fill-rule="evenodd" clip-rule="evenodd" d="M36.7226 81.2881H43.2424V87.8079H49.7623V94.3277H43.2424H36.7226V87.8079V81.2881Z" fill="#FF9E07"/>
<path fill-rule="evenodd" clip-rule="evenodd" d="M36.7226 81.2881H43.2424V87.8079H49.7623V94.3277H43.2424H36.7226V87.8079V81.2881Z" fill="#DF7126"/>
<path fill-rule="evenodd" clip-rule="evenodd" d="M30.2028 22.6098H23.683V29.1296V35.6494V42.1692V48.689V55.2088V61.7287V68.2485V74.7683H30.2028V81.2881H23.683V87.8079H30.2028V94.3277V100.848H36.7226V107.367H43.2424V113.887H36.7226V107.367H30.2028V113.887V120.407V126.927H36.7226H43.2424V133.447H49.7623V139.966H56.2821V133.447V126.927H62.8019V120.407H56.2821H49.7623V113.887H56.2821H62.8019H69.3217V107.367V100.848H75.8415V94.3277H82.3613V87.8079H88.8811H95.401V81.2881H101.921H108.441V74.7683H114.96H121.48V68.2485H128H134.52V74.7683H141.04H147.56H154.079V81.2881H160.599V74.7683V68.2485V61.7287H154.079V68.2485H147.56H141.04V61.7287V55.2088H147.56V61.7287H154.079V55.2088V48.689H147.56H141.04H134.52H128V42.1692H134.52H141.04V35.6494H134.52H128H121.48V29.1296H114.96H108.441H101.921V35.6494H108.441H114.96V42.1692H121.48V48.689H114.96V42.1692H108.441V35.6494H101.921H95.401V29.1296V22.6098H88.8811H82.3613H75.8415H69.3217H62.8019H56.2821H49.7623H43.2424H36.7226H30.2028ZM36.7226 81.2881H43.2424V87.8079H49.7623V94.3277H43.2424H36.7226V87.8079V81.2881Z" fill="#FF9E07"/>
<path d="M82.3613 100.848H75.8415V107.367V113.887H69.3217V120.407V126.927V133.447V139.966V146.486V153.006H75.8415H82.3613V159.526H88.8811H95.401V166.046H101.921H108.441V172.566H114.96H121.48V166.046V159.526V153.006V146.486V139.966V133.447V126.927V120.407H114.96H108.441V113.887H101.921H95.401V107.367H88.8811H82.3613V100.848Z" fill="#D9D9D9"/>
<path d="M128 74.7683H121.48V81.2881H114.96H108.441V87.8079H101.921H95.401V94.3277H88.8811H82.3613V100.848H88.8811H95.401V107.367H101.921H108.441V113.887H114.96H121.48H128H134.52V107.367H141.04H147.56V100.848H154.079H160.599V94.3277V87.8079H154.079H147.56V81.2881H141.04H134.52V74.7683H128Z" fill="#D9D9D9"/>
<path d="M167.119 94.3277H160.599V100.848H167.119H173.639V94.3277H167.119Z" fill="#EEEEEE"/>
<path d="M154.079 100.848H147.56V107.367H154.079H160.599V100.848H154.079Z" fill="#EEEEEE"/>
<path d="M141.04 107.367H134.52V113.887H141.04H147.56V107.367H141.04Z" fill="#EEEEEE"/>
<path d="M128 113.887H121.48V120.407H128H134.52V113.887H128Z" fill="#EEEEEE"/>
<path d="M114.96 113.887H108.441V120.407H114.96H121.48V113.887H114.96Z" fill="#222034"/>
<path d="M101.921 107.367H95.401V113.887H101.921H108.441V107.367H101.921Z" fill="#222034"/>
<path d="M88.8811 100.848H82.3613V107.367H88.8811H95.401V100.848H88.8811Z" fill="#222034"/>
<path d="M88.8811 87.8079H82.3613V94.3277H88.8811H95.401V87.8079H88.8811Z" fill="#222034"/>
<path d="M101.921 81.2881H95.401V87.8079H101.921H108.441V81.2881H101.921Z" fill="#222034"/>
<path d="M114.96 74.7683H108.441V81.2881H114.96H121.48V74.7683H114.96Z" fill="#222034"/>
<path d="M128 68.2485H121.48V74.7683H128H134.52V68.2485H128Z" fill="#222034"/>
<path d="M141.04 74.7683H134.52V81.2881H141.04H147.56V74.7683H141.04Z" fill="#222034"/>
<path d="M154.079 81.2881H147.56V87.8079H154.079H160.599V81.2881H154.079Z" fill="#222034"/>
<path d="M167.119 87.8079H160.599V94.3277H167.119H173.639V87.8079H167.119Z" fill="#222034"/>
<path d="M75.8415 100.848H69.3217V107.367V113.887H75.8415V107.367V100.848Z" fill="#161522"/>
<path d="M69.3217 113.887H62.8019V120.407V126.927V133.447H69.3217V126.927V120.407V113.887Z" fill="#161522"/>
<path d="M62.8019 133.447H56.2821V139.966V146.486V153.006V159.526H62.8019H69.3217V153.006H62.8019V146.486V139.966V133.447Z" fill="#161522"/>
<path d="M75.8415 159.526H69.3217V166.046H75.8415H82.3613V159.526H75.8415Z" fill="#161522"/>
<path d="M88.8811 166.046H82.3613V172.566H88.8811H95.401V166.046H88.8811Z" fill="#161522"/>
<path d="M101.921 172.566H95.401V179.085H101.921H108.441V172.566H101.921Z" fill="#161522"/>
<path d="M141.04 179.085H134.52V185.605H141.04H147.56V179.085H141.04Z" fill="#161522"/>
<path d="M154.079 172.566H147.56V179.085H154.079H160.599V172.566H154.079Z" fill="#161522"/>
<path d="M167.119 166.046H160.599V172.566H167.119H173.639V166.046H167.119Z" fill="#161522"/>
<path d="M180.159 159.526H173.639V166.046H180.159H186.678V159.526H180.159Z" fill="#161522"/>
<path d="M199.718 133.447H193.198V139.966V146.486V153.006H186.678V159.526H193.198H199.718V153.006V146.486V139.966V133.447Z" fill="#161522"/>
<path d="M193.198 113.887H186.678V120.407V126.927V133.447H193.198V126.927V120.407V113.887Z" fill="#161522"/>
<path d="M186.678 100.848H180.159V107.367V113.887H186.678V107.367V100.848Z" fill="#161522"/>
<path d="M141.04 113.887H134.52V120.407H141.04H147.56V113.887H141.04Z" fill="#161522"/>
<path d="M154.079 107.367H147.56V113.887H154.079H160.599V107.367H154.079Z" fill="#161522"/>
<path d="M167.119 100.848H160.599V107.367H167.119H173.639V100.848H167.119Z" fill="#161522"/>
<path d="M69.3217 133.447H62.8019V139.966V146.486V153.006H69.3217V146.486V139.966V133.447Z" fill="#BFBFBF"/>
<path d="M75.8415 153.006H69.3217V159.526H75.8415H82.3613V153.006H75.8415Z" fill="#BFBFBF"/>
<path d="M101.921 166.046H95.401V172.566H101.921H108.441V166.046H101.921Z" fill="#BFBFBF"/>
<path d="M114.96 172.566H108.441V179.085H114.96H121.48V172.566H114.96Z" fill="#BFBFBF"/>
<path d="M88.8811 159.526H82.3613V166.046H88.8811H95.401V159.526H88.8811Z" fill="#BFBFBF"/>
<path d="M128 120.407H121.48V126.927V133.447V139.966V146.486V153.006V159.526V166.046V172.566V179.085H114.96H108.441V185.605H114.96H121.48V192.125H128H134.52V185.605H128V179.085V126.927H134.52V120.407H128Z" fill="#161522"/>
<path d="M134.52 126.927H128V179.085H134.52V172.566V126.927Z" fill="#BABABA"/>
<path d="M134.52 179.085H128V185.605H134.52V179.085Z" fill="#B0B0B0"/>
<path d="M180.159 100.848H173.639V107.367H167.119H160.599V113.887H154.079H147.56V120.407H141.04H134.52V126.927V172.566H141.04H147.56V166.046H154.079H160.599V159.526H167.119H173.639V153.006H180.159H186.678V146.486V139.966H193.198V133.447H186.678V126.927V120.407V113.887H180.159V107.367V100.848Z" fill="#AAAAAA"/>
<path d="M121.48 22.6098V29.1296H128H134.52V22.6098H128H121.48Z" fill="#FF9E07"/>
<path d="M141.04 172.566H134.52V179.085H141.04H147.56V172.566H141.04Z" fill="#999999"/>
<path d="M154.079 166.046H147.56V172.566H154.079H160.599V166.046H154.079Z" fill="#999999"/>
<path d="M167.119 159.526H160.599V166.046H167.119H173.639V159.526H167.119Z" fill="#999999"/>
<path d="M180.159 153.006H173.639V159.526H180.159H186.678V153.006H180.159Z" fill="#999999"/>
<path d="M193.198 139.966H186.678V146.486V153.006H193.198V146.486V139.966Z" fill="#999999"/>
<path d="M114.96 185.605H108.441V192.125H114.96H121.48V185.605H114.96Z" fill="#934F25"/>
<path d="M101.921 179.085H95.401V185.605H101.921H108.441V179.085H101.921Z" fill="#934F25"/>
<path d="M88.8811 172.566H82.3613V179.085H88.8811H95.401V172.566H88.8811Z" fill="#934F25"/>
<path d="M128 192.125H121.48V198.645H128H134.52V192.125H128Z" fill="#934F25"/>
<path d="M141.04 185.605H134.52V192.125H141.04H147.56V185.605H141.04Z" fill="#934F25"/>
<path d="M212.758 146.486H206.238V153.006V159.526V166.046H199.718H193.198V172.566H186.678V179.085H180.159H173.639V185.605H167.119H160.599V192.125H154.079H147.56V198.645V205.165H154.079V198.645H160.599V205.165H154.079V211.684H160.599V218.204H154.079V224.724H160.599H167.119V231.244H173.639V224.724V218.204H167.119V211.684V205.165H173.639V211.684V218.204H180.159H186.678V224.724V231.244H193.198H199.718H206.238H212.758H219.277H225.797H232.317V224.724V218.204V211.684V205.165V198.645V192.125V185.605V179.085V172.566V166.046H225.797V159.526H219.277V153.006H212.758V146.486Z" fill="#FF9E07"/>
<path d="M30.2028 87.8079H23.683V94.3277V100.848V107.367V113.887V120.407V126.927V133.447V139.966V146.486V153.006V159.526V166.046V172.566V179.085V185.605V192.125V198.645V205.165V211.684V218.204V224.724V231.244H30.2028H36.7226H43.2424H49.7623H56.2821H62.8019H69.3217H75.8415H82.3613H88.8811H95.401H101.921H108.441H114.96H121.48H128H134.52H141.04V224.724H147.56V231.244H154.079H160.599H167.119V224.724H160.599H154.079V218.204H147.56V211.684V205.165V198.645H141.04V205.165H134.52H128V211.684H121.48V205.165V198.645H114.96V192.125H108.441V185.605H101.921V192.125H95.401V185.605V179.085H88.8811H82.3613V172.566H75.8415H69.3217V166.046H62.8019H56.2821H49.7623V159.526V153.006H43.2424V146.486H36.7226V139.966H43.2424V146.486H49.7623V153.006H56.2821V146.486V139.966H49.7623V133.447H43.2424V126.927H36.7226H30.2028V120.407V113.887V107.367H36.7226V100.848H30.2028V94.3277V87.8079Z" fill="#DF7126"/>
<path d="M43.2424 107.367H36.7226V113.887H43.2424V107.367Z" fill="#DF7126"/>
<path d="M56.2821 113.887H49.7623V120.407H56.2821H62.8019V113.887H56.2821Z" fill="#DF7126"/>
<path d="M154.079 205.165H147.56V211.684H154.079V205.165Z" fill="#DF7126"/>
<path d="M160.599 198.645H154.079V205.165H160.599V198.645Z" fill="#DF7126"/>
<path d="M160.599 211.684H154.079V218.204H160.599V211.684Z" fill="#DF7126"/>
<path d="M173.639 205.165H167.119V211.684V218.204H173.639V211.684V205.165Z" fill="#DF7126"/>
<path d="M180.159 218.204H173.639V224.724V231.244H180.159H186.678V224.724V218.204H180.159Z" fill="#DF7126"/>
<path d="M56.2821 153.006H49.7623V159.526V166.046H56.2821V159.526V153.006Z" fill="#FF9E07"/>
<path d="M49.7623 146.486H43.2424V153.006H49.7623V146.486Z" fill="#FF9E07"/>
<path d="M43.2424 139.966H36.7226V146.486H43.2424V139.966Z" fill="#FF9E07"/>
<path d="M62.8019 159.526H56.2821V166.046H62.8019H69.3217V159.526H62.8019Z" fill="#934F25"/>
<path d="M141.04 192.125H134.52V198.645H141.04H147.56V192.125H141.04Z" fill="#AF5B26"/>
<path d="M134.52 198.645H128V205.165H134.52H141.04V198.645H134.52Z" fill="#FF9E07"/>
<path d="M180.159 172.566H173.639V179.085H180.159H186.678V172.566H180.159Z" fill="#C87E0D"/>
<path d="M167.119 179.085H160.599V185.605H167.119H173.639V179.085H167.119Z" fill="#C87E0D"/>
<path d="M206.238 146.486H199.718V153.006V159.526H206.238V153.006V146.486Z" fill="#A76A11"/>
<path d="M193.198 159.526H186.678V166.046H193.198H199.718V159.526H193.198Z" fill="#A76A11"/>
<path d="M180.159 166.046H173.639V172.566H180.159H186.678V166.046H180.159Z" fill="#A76A11"/>
<path d="M167.119 172.566H160.599V179.085H167.119H173.639V172.566H167.119Z" fill="#A76A11"/>
<path d="M154.079 179.085H147.56V185.605H154.079H160.599V179.085H154.079Z" fill="#A76A11"/>
<path d="M62.8019 126.927H56.2821V133.447H62.8019V126.927Z" fill="#DF7126"/>
<path d="M225.797 153.006H219.277V159.526H225.797V166.046H232.317V159.526V153.006H225.797Z" fill="#FFC907"/>
<path d="M199.718 126.927H193.198V133.447H199.718H206.238V126.927H199.718Z" fill="#FFC907"/>
<path fill-rule="evenodd" clip-rule="evenodd" d="M128 29.1296H121.48V35.6494H128H134.52H141.04V29.1296H147.56V35.6494H141.04V42.1692H134.52H128V48.689H134.52H141.04H147.56H154.079V55.2088V61.7287H160.599V68.2485V74.7683V81.2881H167.119V87.8079H173.639V81.2881H180.159V87.8079H186.678V94.3277H180.159V100.848H186.678V107.367V113.887H193.198V120.407H199.718H206.238H212.758V126.927V133.447V139.966H219.277V133.447H225.797V126.927H219.277V120.407V113.887H212.758V107.367H219.277V113.887H225.797V120.407V126.927H232.317V120.407V113.887V107.367V100.848V94.3277V87.8079V81.2881V74.7683V68.2485V61.7287V55.2088V48.689V42.1692V35.6494V29.1296V22.6098H225.797H219.277H212.758H206.238H199.718H193.198H186.678H180.159H173.639H167.119H160.599H154.079H147.56H141.04H134.52V29.1296H128ZM154.079 35.6494H160.599V42.1692H167.119V48.689V55.2088H173.639V61.7287V68.2485V74.7683H167.119V68.2485V61.7287V55.2088H160.599V48.689V42.1692H154.079V35.6494ZM193.198 100.848H199.718H206.238V107.367H199.718H193.198V100.848Z" fill="#FFC907"/>
<path d="M147.56 55.2088H141.04V61.7287V68.2485H147.56H154.079V61.7287H147.56V55.2088Z" fill="#FFC907"/>
<path d="M121.48 42.1692H114.96V48.689H121.48V42.1692Z" fill="#FFC907"/>
<path d="M114.96 35.6494H108.441V42.1692H114.96V35.6494Z" fill="#FFC907"/>
<path d="M95.401 22.6098V29.1296V35.6494H101.921V29.1296H108.441H114.96H121.48V22.6098H114.96H108.441H101.921H95.401Z" fill="#FFC907"/>
<path d="M199.718 120.407H193.198V126.927H199.718H206.238V133.447H199.718V139.966H206.238H212.758V133.447V126.927V120.407H206.238H199.718Z" fill="#FF9E07"/>
<path d="M225.797 133.447H219.277V139.966H212.758V146.486H219.277V153.006H225.797H232.317V146.486V139.966H225.797V133.447Z" fill="#FF9E07"/>
<path d="M232.317 126.927H225.797V133.447H232.317V126.927Z" fill="#FF9E07"/>
<path d="M225.797 113.887H219.277V120.407V126.927H225.797V120.407V113.887Z" fill="#FF9E07"/>
<path d="M219.277 107.367H212.758V113.887H219.277V107.367Z" fill="#FF9E07"/>
<path d="M173.639 55.2088H167.119V61.7287V68.2485V74.7683H173.639V68.2485V61.7287V55.2088Z" fill="#FF9E07"/>
<path d="M167.119 42.1692H160.599V48.689V55.2088H167.119V48.689V42.1692Z" fill="#FF9E07"/>
<path d="M199.718 100.848H193.198V107.367H199.718H206.238V100.848H199.718Z" fill="#FF9E07"/>
<g filter="url(#filter1_d_43_10)">
<path d="M16.9503 171.796L16.8048 139.763L16.8058 115.262L16.8048 83.8652C16.8048 82.5672 16.8386 81.0851 16.8771 79.5098C16.9146 77.9718 16.9569 76.334 16.9659 74.8613V74.8604C16.9801 72.534 17.0077 70.2381 17.0695 67.957C17.2059 62.9529 17.4976 58.1999 18.3204 53.6533C19.0942 49.3789 20.3051 45.4863 22.1407 41.7266L22.5157 40.9766C24.5358 37.0379 27.1776 33.4293 30.3312 30.2988V30.2979C33.4853 27.1667 37.1253 24.5414 41.1027 22.5312C44.8799 20.6224 48.7761 19.346 53.0402 18.5176L53.8986 18.3584C58.491 17.5387 63.2896 17.2476 68.3341 17.1123H68.3351C70.6335 17.0506 72.9464 17.0242 75.2931 17.0098C77.8783 16.994 80.467 16.994 83.0802 16.9941H83.7081L115.701 16.8779H140.011L172.581 16.9941H173.206C175.814 16.994 178.399 16.994 180.979 17.0098C182.735 17.0206 184.473 17.0381 186.199 17.0723L187.923 17.1123C192.956 17.2476 197.742 17.5381 202.322 18.3564C206.916 19.1772 211.072 20.4928 215.094 22.5293C219.061 24.5381 222.692 27.1627 225.839 30.293V30.2939C228.986 33.4237 231.623 37.0328 233.64 40.9727C235.555 44.7152 236.835 48.5736 237.666 52.7959L237.826 53.6455C238.649 58.1948 238.941 62.9506 239.076 67.9561V67.957C239.139 70.2367 239.165 72.5322 239.179 74.8594V74.8613C239.195 77.4607 239.196 80.064 239.195 82.6914V83.1885L239.193 115.236V139.764L239.195 171.827V172.423L239.193 176.305C239.192 177.594 239.187 178.88 239.179 180.165V180.167C239.165 182.497 239.138 184.796 239.076 187.08C238.94 192.091 238.649 196.852 237.827 201.407C237.055 205.69 235.845 209.591 234.013 213.357L233.638 214.108C231.62 218.055 228.984 221.669 225.836 224.804L225.835 224.805C222.688 227.94 219.056 230.568 215.089 232.579C211.07 234.617 206.916 235.934 202.326 236.756C197.745 237.576 192.957 237.867 187.923 238.003C186.776 238.034 185.625 238.056 184.469 238.072L180.979 238.105C178.398 238.121 175.813 238.121 173.204 238.121H172.605L140.385 238.122H115.965L83.6827 238.121H83.1906C81.8656 238.121 80.5468 238.121 79.2316 238.119L75.2931 238.105C72.9475 238.091 70.6339 238.065 68.3351 238.003H68.3341C63.2919 237.868 58.4952 237.577 53.9054 236.757V236.756L53.047 236.597C48.7808 235.767 44.883 234.489 41.1036 232.576H41.1046C37.1284 230.564 33.4895 227.935 30.3351 224.799C27.1807 221.663 24.5376 218.049 22.5167 214.103C20.4698 210.105 19.1477 205.975 18.3224 201.411C17.4985 196.855 17.2056 192.092 17.0695 187.08C17.0074 184.796 16.9801 182.496 16.9659 180.166C16.9502 177.564 16.9503 174.957 16.9503 172.327V171.796Z" stroke="white" stroke-width="13.7561" shape-rendering="crispEdges"/>
</g>
</g>
</g>
<defs>
<filter id="filter0_d_43_10" x="7.29029" y="8.50976" width="243.712" height="242.566" filterUnits="userSpaceOnUse" color-interpolation-filters="sRGB">
<feFlood flood-opacity="0" result="BackgroundImageFix"/>
<feColorMatrix in="SourceAlpha" type="matrix" values="0 0 0 0 0 0 0 0 0 0 0 0 0 0 0 0 0 0 127 0" result="hardAlpha"/>
<feOffset dx="1.14634" dy="2.29268"/>
<feGaussianBlur stdDeviation="1.89146"/>
<feComposite in2="hardAlpha" operator="out"/>
<feColorMatrix type="matrix" values="0 0 0 0 0 0 0 0 0 0 0 0 0 0 0 0 0 0 0.25 0"/>
<feBlend mode="normal" in2="BackgroundImageFix" result="effect1_dropShadow_43_10"/>
<feBlend mode="normal" in="SourceGraphic" in2="effect1_dropShadow_43_10" result="shape"/>
</filter>
<filter id="filter1_d_43_10" x="2.13176" y="2.20488" width="251.737" height="250.59" filterUnits="userSpaceOnUse" color-interpolation-filters="sRGB">
<feFlood flood-opacity="0" result="BackgroundImageFix"/>
<feColorMatrix in="SourceAlpha" type="matrix" values="0 0 0 0 0 0 0 0 0 0 0 0 0 0 0 0 0 0 127 0" result="hardAlpha"/>
<feOffset/>
<feGaussianBlur stdDeviation="3.89756"/>
<feComposite in2="hardAlpha" operator="out"/>
<feColorMatrix type="matrix" values="0 0 0 0 0 0 0 0 0 0 0 0 0 0 0 0 0 0 0.25 0"/>
<feBlend mode="normal" in2="BackgroundImageFix" result="effect1_dropShadow_43_10"/>
<feBlend mode="normal" in="SourceGraphic" in2="effect1_dropShadow_43_10" result="shape"/>
</filter>
</defs>
</svg>
