<svg width="256" height="256" viewBox="0 0 256 256" fill="none" xmlns="http://www.w3.org/2000/svg">
<g filter="url(#filter0_d_23_50183)">
<mask id="mask0_23_50183" style="mask-type:alpha" maskUnits="userSpaceOnUse" x="25" y="25" width="206" height="205">
<path fill-rule="evenodd" clip-rule="evenodd" d="M231 88.8453C231 86.4117 231.001 83.9778 230.986 81.544C230.974 79.4937 230.95 77.444 230.894 75.3947C230.773 70.9283 230.508 66.4235 229.71 62.0068C228.9 57.5265 227.579 53.3566 225.495 49.2857C223.447 45.2845 220.772 41.6231 217.58 38.4488C214.389 35.2746 210.709 32.6141 206.686 30.5773C202.591 28.5036 198.397 27.1886 193.889 26.3832C189.451 25.5901 184.923 25.3272 180.435 25.2065C178.374 25.151 176.313 25.1276 174.252 25.1149C171.805 25.1 169.358 25.1013 166.911 25.1013L138.499 25H117.249L89.3403 25.1013C86.8885 25.1013 84.4368 25.1 81.9851 25.1149C79.9196 25.1276 77.8551 25.151 75.7904 25.2065C71.2917 25.3272 66.7534 25.5904 62.3042 26.3845C57.791 27.1896 53.59 28.5041 49.4896 30.5763C45.4588 32.6133 41.7706 35.2741 38.5726 38.4488C35.3752 41.6229 32.6949 45.2835 30.6432 49.284C28.5542 53.3568 27.2297 57.5292 26.4182 62.0121C25.6192 66.427 25.3545 70.9303 25.2327 75.3947C25.1772 77.4442 25.1532 79.494 25.1407 81.544C25.1257 83.9781 25 87.0016 25 89.4354L25.0007 116.824L25 138.197L25.127 166.168C25.127 168.605 25.126 171.042 25.1407 173.479C25.1532 175.532 25.1772 177.585 25.233 179.637C25.3545 184.109 25.6197 188.621 26.4195 193.043C27.2307 197.53 28.555 201.705 30.6422 205.781C32.6942 209.788 35.3749 213.455 38.5726 216.633C41.7704 219.812 45.4576 222.476 49.4876 224.516C53.5905 226.592 57.7935 227.909 62.3095 228.715C66.7567 229.51 71.2934 229.773 75.7904 229.894C77.8551 229.949 79.9198 229.973 81.9853 229.985C84.4371 230 86.8885 229.999 89.3403 229.999L117.502 230H138.804L166.911 229.999C169.358 229.999 171.805 230 174.252 229.985C176.313 229.973 178.374 229.949 180.435 229.894C184.925 229.773 189.454 229.509 193.895 228.714C198.399 227.908 202.592 226.592 206.685 224.517C210.708 222.477 214.389 219.812 217.58 216.633C220.772 213.455 223.447 209.789 225.495 205.783C227.579 201.705 228.901 197.527 229.711 193.038C230.508 188.617 230.773 184.108 230.894 179.637C230.95 177.585 230.974 175.532 230.986 173.479C231.001 171.042 231 168.605 231 166.168C231 166.168 230.998 138.691 230.998 138.197V116.802C230.998 116.437 231 88.8453 231 88.8453Z" fill="#D9D9D9"/>
</mask>
<g mask="url(#mask0_23_50183)">
<path d="M42.6875 36H37V41.6875H42.6875V36Z" fill="#FF9E07"/>
<path d="M48.375 36H42.6875V41.6875H48.375V36Z" fill="#FF9E07"/>
<path d="M54.0625 36H48.375V41.6875H54.0625V36Z" fill="#FF9E07"/>
<path d="M59.75 36H54.0625V41.6875H59.75V36Z" fill="#FF9E07"/>
<path d="M65.4375 36H59.75V41.6875H65.4375V36Z" fill="#FF9E07"/>
<path d="M71.125 36H65.4375V41.6875H71.125V36Z" fill="#FF9E07"/>
<path d="M76.8125 36H71.125V41.6875H76.8125V36Z" fill="#FF9E07"/>
<path d="M82.5 36H76.8125V41.6875H82.5V36Z" fill="#FF9E07"/>
<path d="M88.1875 36H82.5V41.6875H88.1875V36Z" fill="#FF9E07"/>
<path d="M93.875 36H88.1875V41.6875H93.875V36Z" fill="#FF9E07"/>
<path d="M99.5625 36H93.875V41.6875H99.5625V36Z" fill="#FF9E07"/>
<path d="M105.25 36H99.5625V41.6875H105.25V36Z" fill="#FFC907"/>
<path d="M110.938 36H105.25V41.6875H110.938V36Z" fill="#FFC907"/>
<path d="M116.625 36H110.938V41.6875H116.625V36Z" fill="#FFC907"/>
<path d="M122.312 36H116.625V41.6875H122.312V36Z" fill="#FFC907"/>
<path d="M128 36H122.312V41.6875H128V36Z" fill="#FF9E07"/>
<path d="M133.688 36H128V41.6875H133.688V36Z" fill="#FF9E07"/>
<path d="M139.375 36H133.688V41.6875H139.375V36Z" fill="#FFC907"/>
<path d="M145.062 36H139.375V41.6875H145.062V36Z" fill="#FFC907"/>
<path d="M150.75 36H145.062V41.6875H150.75V36Z" fill="#FFC907"/>
<path d="M156.438 36H150.75V41.6875H156.438V36Z" fill="#FFC907"/>
<path d="M162.125 36H156.438V41.6875H162.125V36Z" fill="#FFC907"/>
<path d="M167.812 36H162.125V41.6875H167.812V36Z" fill="#FFC907"/>
<path d="M173.5 36H167.812V41.6875H173.5V36Z" fill="#FFC907"/>
<path d="M179.188 36H173.5V41.6875H179.188V36Z" fill="#FFC907"/>
<path d="M184.875 36H179.188V41.6875H184.875V36Z" fill="#FFC907"/>
<path d="M190.562 36H184.875V41.6875H190.562V36Z" fill="#FFC907"/>
<path d="M196.25 36H190.562V41.6875H196.25V36Z" fill="#FFC907"/>
<path d="M201.938 36H196.25V41.6875H201.938V36Z" fill="#FFC907"/>
<path d="M207.625 36H201.938V41.6875H207.625V36Z" fill="#FFC907"/>
<path d="M213.312 36H207.625V41.6875H213.312V36Z" fill="#FFC907"/>
<path d="M219 36H213.312V41.6875H219V36Z" fill="#FFC907"/>
<path d="M42.6875 41.6875H37V47.375H42.6875V41.6875Z" fill="#FF9E07"/>
<path d="M48.375 41.6875H42.6875V47.375H48.375V41.6875Z" fill="#FF9E07"/>
<path d="M54.0625 41.6875H48.375V47.375H54.0625V41.6875Z" fill="#FF9E07"/>
<path d="M59.75 41.6875H54.0625V47.375H59.75V41.6875Z" fill="#FF9E07"/>
<path d="M65.4375 41.6875H59.75V47.375H65.4375V41.6875Z" fill="#FF9E07"/>
<path d="M71.125 41.6875H65.4375V47.375H71.125V41.6875Z" fill="#FF9E07"/>
<path d="M76.8125 41.6875H71.125V47.375H76.8125V41.6875Z" fill="#FF9E07"/>
<path d="M82.5 41.6875H76.8125V47.375H82.5V41.6875Z" fill="#FF9E07"/>
<path d="M88.1875 41.6875H82.5V47.375H88.1875V41.6875Z" fill="#FF9E07"/>
<path d="M93.875 41.6875H88.1875V47.375H93.875V41.6875Z" fill="#FF9E07"/>
<path d="M99.5625 41.6875H93.875V47.375H99.5625V41.6875Z" fill="#FF9E07"/>
<path d="M105.25 41.6875H99.5625V47.375H105.25V41.6875Z" fill="#FFC907"/>
<path d="M110.938 41.6875H105.25V47.375H110.938V41.6875Z" fill="#FF9E07"/>
<path d="M116.625 41.6875H110.938V47.375H116.625V41.6875Z" fill="#FF9E07"/>
<path d="M122.312 41.6875H116.625V47.375H122.312V41.6875Z" fill="#FF9E07"/>
<path d="M128 41.6875H122.312V47.375H128V41.6875Z" fill="#FFC907"/>
<path d="M133.688 41.6875H128V47.375H133.688V41.6875Z" fill="#FFC907"/>
<path d="M139.375 41.6875H133.688V47.375H139.375V41.6875Z" fill="#FFC907"/>
<path d="M145.062 41.6875H139.375V47.375H145.062V41.6875Z" fill="#FF9E07"/>
<path d="M150.75 41.6875H145.062V47.375H150.75V41.6875Z" fill="#FFC907"/>
<path d="M156.438 41.6875H150.75V47.375H156.438V41.6875Z" fill="#FFC907"/>
<path d="M162.125 41.6875H156.438V47.375H162.125V41.6875Z" fill="#FFC907"/>
<path d="M167.812 41.6875H162.125V47.375H167.812V41.6875Z" fill="#FFC907"/>
<path d="M173.5 41.6875H167.812V47.375H173.5V41.6875Z" fill="#FFC907"/>
<path d="M179.188 41.6875H173.5V47.375H179.188V41.6875Z" fill="#FFC907"/>
<path d="M184.875 41.6875H179.188V47.375H184.875V41.6875Z" fill="#FFC907"/>
<path d="M190.562 41.6875H184.875V47.375H190.562V41.6875Z" fill="#FFC907"/>
<path d="M196.25 41.6875H190.562V47.375H196.25V41.6875Z" fill="#FFC907"/>
<path d="M201.938 41.6875H196.25V47.375H201.938V41.6875Z" fill="#FFC907"/>
<path d="M207.625 41.6875H201.938V47.375H207.625V41.6875Z" fill="#FFC907"/>
<path d="M213.312 41.6875H207.625V47.375H213.312V41.6875Z" fill="#FFC907"/>
<path d="M219 41.6875H213.312V47.375H219V41.6875Z" fill="#FFC907"/>
<path d="M42.6875 47.375H37V53.0625H42.6875V47.375Z" fill="#FF9E07"/>
<path d="M48.375 47.375H42.6875V53.0625H48.375V47.375Z" fill="#FF9E07"/>
<path d="M54.0625 47.375H48.375V53.0625H54.0625V47.375Z" fill="#FF9E07"/>
<path d="M59.75 47.375H54.0625V53.0625H59.75V47.375Z" fill="#FF9E07"/>
<path d="M65.4375 47.375H59.75V53.0625H65.4375V47.375Z" fill="#FF9E07"/>
<path d="M71.125 47.375H65.4375V53.0625H71.125V47.375Z" fill="#FF9E07"/>
<path d="M76.8125 47.375H71.125V53.0625H76.8125V47.375Z" fill="#FF9E07"/>
<path d="M82.5 47.375H76.8125V53.0625H82.5V47.375Z" fill="#FF9E07"/>
<path d="M88.1875 47.375H82.5V53.0625H88.1875V47.375Z" fill="#FF9E07"/>
<path d="M93.875 47.375H88.1875V53.0625H93.875V47.375Z" fill="#FF9E07"/>
<path d="M99.5625 47.375H93.875V53.0625H99.5625V47.375Z" fill="#FF9E07"/>
<path d="M105.25 47.375H99.5625V53.0625H105.25V47.375Z" fill="#FF9E07"/>
<path d="M110.938 47.375H105.25V53.0625H110.938V47.375Z" fill="#FF9E07"/>
<path d="M116.625 47.375H110.938V53.0625H116.625V47.375Z" fill="#FFC907"/>
<path d="M122.312 47.375H116.625V53.0625H122.312V47.375Z" fill="#FF9E07"/>
<path d="M128 47.375H122.312V53.0625H128V47.375Z" fill="#FF9E07"/>
<path d="M133.688 47.375H128V53.0625H133.688V47.375Z" fill="#FF9E07"/>
<path d="M139.375 47.375H133.688V53.0625H139.375V47.375Z" fill="#FF9E07"/>
<path d="M145.062 47.375H139.375V53.0625H145.062V47.375Z" fill="#FFC907"/>
<path d="M150.75 47.375H145.062V53.0625H150.75V47.375Z" fill="#FFC907"/>
<path d="M156.438 47.375H150.75V53.0625H156.438V47.375Z" fill="#FF9E07"/>
<path d="M162.125 47.375H156.438V53.0625H162.125V47.375Z" fill="#FFC907"/>
<path d="M167.812 47.375H162.125V53.0625H167.812V47.375Z" fill="#FFC907"/>
<path d="M173.5 47.375H167.812V53.0625H173.5V47.375Z" fill="#FFC907"/>
<path d="M179.188 47.375H173.5V53.0625H179.188V47.375Z" fill="#FFC907"/>
<path d="M184.875 47.375H179.188V53.0625H184.875V47.375Z" fill="#FFC907"/>
<path d="M190.562 47.375H184.875V53.0625H190.562V47.375Z" fill="#FFC907"/>
<path d="M196.25 47.375H190.562V53.0625H196.25V47.375Z" fill="#FFC907"/>
<path d="M201.938 47.375H196.25V53.0625H201.938V47.375Z" fill="#FFC907"/>
<path d="M207.625 47.375H201.938V53.0625H207.625V47.375Z" fill="#FFC907"/>
<path d="M213.312 47.375H207.625V53.0625H213.312V47.375Z" fill="#FFC907"/>
<path d="M219 47.375H213.312V53.0625H219V47.375Z" fill="#FFC907"/>
<path d="M42.6875 53.0625H37V58.75H42.6875V53.0625Z" fill="#FF9E07"/>
<path d="M48.375 53.0625H42.6875V58.75H48.375V53.0625Z" fill="#FF9E07"/>
<path d="M54.0625 53.0625H48.375V58.75H54.0625V53.0625Z" fill="#FF9E07"/>
<path d="M59.75 53.0625H54.0625V58.75H59.75V53.0625Z" fill="#FF9E07"/>
<path d="M65.4375 53.0625H59.75V58.75H65.4375V53.0625Z" fill="#FF9E07"/>
<path d="M71.125 53.0625H65.4375V58.75H71.125V53.0625Z" fill="#FF9E07"/>
<path d="M76.8125 53.0625H71.125V58.75H76.8125V53.0625Z" fill="#FF9E07"/>
<path d="M82.5 53.0625H76.8125V58.75H82.5V53.0625Z" fill="#FF9E07"/>
<path d="M88.1875 53.0625H82.5V58.75H88.1875V53.0625Z" fill="#FF9E07"/>
<path d="M93.875 53.0625H88.1875V58.75H93.875V53.0625Z" fill="#FF9E07"/>
<path d="M99.5625 53.0625H93.875V58.75H99.5625V53.0625Z" fill="#FF9E07"/>
<path d="M105.25 53.0625H99.5625V58.75H105.25V53.0625Z" fill="#FF9E07"/>
<path d="M110.938 53.0625H105.25V58.75H110.938V53.0625Z" fill="#FF9E07"/>
<path d="M116.625 53.0625H110.938V58.75H116.625V53.0625Z" fill="#FF9E07"/>
<path d="M122.312 53.0625H116.625V58.75H122.312V53.0625Z" fill="#FFC907"/>
<path d="M128 53.0625H122.312V58.75H128V53.0625Z" fill="#FF9E07"/>
<path d="M133.688 53.0625H128V58.75H133.688V53.0625Z" fill="#FFC907"/>
<path d="M139.375 53.0625H133.688V58.75H139.375V53.0625Z" fill="#FFC907"/>
<path d="M145.062 53.0625H139.375V58.75H145.062V53.0625Z" fill="#FFC907"/>
<path d="M150.75 53.0625H145.062V58.75H150.75V53.0625Z" fill="#FFC907"/>
<path d="M156.438 53.0625H150.75V58.75H156.438V53.0625Z" fill="#FFC907"/>
<path d="M162.125 53.0625H156.438V58.75H162.125V53.0625Z" fill="#FF9E07"/>
<path d="M167.812 53.0625H162.125V58.75H167.812V53.0625Z" fill="#FFC907"/>
<path d="M173.5 53.0625H167.812V58.75H173.5V53.0625Z" fill="#FFC907"/>
<path d="M179.188 53.0625H173.5V58.75H179.188V53.0625Z" fill="#FFC907"/>
<path d="M184.875 53.0625H179.188V58.75H184.875V53.0625Z" fill="#FFC907"/>
<path d="M190.562 53.0625H184.875V58.75H190.562V53.0625Z" fill="#FFC907"/>
<path d="M196.25 53.0625H190.562V58.75H196.25V53.0625Z" fill="#FFC907"/>
<path d="M201.938 53.0625H196.25V58.75H201.938V53.0625Z" fill="#FFC907"/>
<path d="M207.625 53.0625H201.938V58.75H207.625V53.0625Z" fill="#FFC907"/>
<path d="M213.312 53.0625H207.625V58.75H213.312V53.0625Z" fill="#FFC907"/>
<path d="M219 53.0625H213.312V58.75H219V53.0625Z" fill="#FFC907"/>
<path d="M42.6875 58.75H37V64.4375H42.6875V58.75Z" fill="#FF9E07"/>
<path d="M48.375 58.75H42.6875V64.4375H48.375V58.75Z" fill="#FF9E07"/>
<path d="M54.0625 58.75H48.375V64.4375H54.0625V58.75Z" fill="#FF9E07"/>
<path d="M59.75 58.75H54.0625V64.4375H59.75V58.75Z" fill="#FF9E07"/>
<path d="M65.4375 58.75H59.75V64.4375H65.4375V58.75Z" fill="#FF9E07"/>
<path d="M71.125 58.75H65.4375V64.4375H71.125V58.75Z" fill="#FF9E07"/>
<path d="M76.8125 58.75H71.125V64.4375H76.8125V58.75Z" fill="#FF9E07"/>
<path d="M82.5 58.75H76.8125V64.4375H82.5V58.75Z" fill="#FF9E07"/>
<path d="M88.1875 58.75H82.5V64.4375H88.1875V58.75Z" fill="#FF9E07"/>
<path d="M93.875 58.75H88.1875V64.4375H93.875V58.75Z" fill="#FF9E07"/>
<path d="M99.5625 58.75H93.875V64.4375H99.5625V58.75Z" fill="#FF9E07"/>
<path d="M105.25 58.75H99.5625V64.4375H105.25V58.75Z" fill="#FF9E07"/>
<path d="M110.938 58.75H105.25V64.4375H110.938V58.75Z" fill="#FF9E07"/>
<path d="M116.625 58.75H110.938V64.4375H116.625V58.75Z" fill="#FF9E07"/>
<path d="M122.312 58.75H116.625V64.4375H122.312V58.75Z" fill="#FF9E07"/>
<path d="M128 58.75H122.312V64.4375H128V58.75Z" fill="#FF9E07"/>
<path d="M133.688 58.75H128V64.4375H133.688V58.75Z" fill="#FF9E07"/>
<path d="M139.375 58.75H133.688V64.4375H139.375V58.75Z" fill="#FF9E07"/>
<path d="M145.062 58.75H139.375V64.4375H145.062V58.75Z" fill="#FF9E07"/>
<path d="M150.75 58.75H145.062V64.4375H150.75V58.75Z" fill="#FF9E07"/>
<path d="M156.438 58.75H150.75V64.4375H156.438V58.75Z" fill="#FFC907"/>
<path d="M162.125 58.75H156.438V64.4375H162.125V58.75Z" fill="#FF9E07"/>
<path d="M167.812 58.75H162.125V64.4375H167.812V58.75Z" fill="#FFC907"/>
<path d="M173.5 58.75H167.812V64.4375H173.5V58.75Z" fill="#FFC907"/>
<path d="M179.188 58.75H173.5V64.4375H179.188V58.75Z" fill="#FFC907"/>
<path d="M184.875 58.75H179.188V64.4375H184.875V58.75Z" fill="#FFC907"/>
<path d="M190.562 58.75H184.875V64.4375H190.562V58.75Z" fill="#FFC907"/>
<path d="M196.25 58.75H190.562V64.4375H196.25V58.75Z" fill="#FFC907"/>
<path d="M201.938 58.75H196.25V64.4375H201.938V58.75Z" fill="#FFC907"/>
<path d="M207.625 58.75H201.938V64.4375H207.625V58.75Z" fill="#FFC907"/>
<path d="M213.312 58.75H207.625V64.4375H213.312V58.75Z" fill="#FFC907"/>
<path d="M219 58.75H213.312V64.4375H219V58.75Z" fill="#FFC907"/>
<path d="M42.6875 64.4375H37V70.125H42.6875V64.4375Z" fill="#FF9E07"/>
<path d="M48.375 64.4375H42.6875V70.125H48.375V64.4375Z" fill="#FF9E07"/>
<path d="M54.0625 64.4375H48.375V70.125H54.0625V64.4375Z" fill="#FF9E07"/>
<path d="M59.75 64.4375H54.0625V70.125H59.75V64.4375Z" fill="#FF9E07"/>
<path d="M65.4375 64.4375H59.75V70.125H65.4375V64.4375Z" fill="#FF9E07"/>
<path d="M71.125 64.4375H65.4375V70.125H71.125V64.4375Z" fill="#FF9E07"/>
<path d="M76.8125 64.4375H71.125V70.125H76.8125V64.4375Z" fill="#FF9E07"/>
<path d="M82.5 64.4375H76.8125V70.125H82.5V64.4375Z" fill="#FF9E07"/>
<path d="M88.1875 64.4375H82.5V70.125H88.1875V64.4375Z" fill="#FF9E07"/>
<path d="M93.875 64.4375H88.1875V70.125H93.875V64.4375Z" fill="#FF9E07"/>
<path d="M99.5625 64.4375H93.875V70.125H99.5625V64.4375Z" fill="#FF9E07"/>
<path d="M105.25 64.4375H99.5625V70.125H105.25V64.4375Z" fill="#FF9E07"/>
<path d="M110.938 64.4375H105.25V70.125H110.938V64.4375Z" fill="#FF9E07"/>
<path d="M116.625 64.4375H110.938V70.125H116.625V64.4375Z" fill="#FF9E07"/>
<path d="M122.312 64.4375H116.625V70.125H122.312V64.4375Z" fill="#FF9E07"/>
<path d="M128 64.4375H122.312V70.125H128V64.4375Z" fill="#FF9E07"/>
<path d="M133.688 64.4375H128V70.125H133.688V64.4375Z" fill="#FF9E07"/>
<path d="M139.375 64.4375H133.688V70.125H139.375V64.4375Z" fill="#FF9E07"/>
<path d="M145.062 64.4375H139.375V70.125H145.062V64.4375Z" fill="#FFC907"/>
<path d="M150.75 64.4375H145.062V70.125H150.75V64.4375Z" fill="#FF9E07"/>
<path d="M156.438 64.4375H150.75V70.125H156.438V64.4375Z" fill="#FFC907"/>
<path d="M162.125 64.4375H156.438V70.125H162.125V64.4375Z" fill="#FFC907"/>
<path d="M167.812 64.4375H162.125V70.125H167.812V64.4375Z" fill="#FF9E07"/>
<path d="M173.5 64.4375H167.812V70.125H173.5V64.4375Z" fill="#FFC907"/>
<path d="M179.188 64.4375H173.5V70.125H179.188V64.4375Z" fill="#FFC907"/>
<path d="M184.875 64.4375H179.188V70.125H184.875V64.4375Z" fill="#FFC907"/>
<path d="M190.562 64.4375H184.875V70.125H190.562V64.4375Z" fill="#FFC907"/>
<path d="M196.25 64.4375H190.562V70.125H196.25V64.4375Z" fill="#FFC907"/>
<path d="M201.938 64.4375H196.25V70.125H201.938V64.4375Z" fill="#FFC907"/>
<path d="M207.625 64.4375H201.938V70.125H207.625V64.4375Z" fill="#FFC907"/>
<path d="M213.312 64.4375H207.625V70.125H213.312V64.4375Z" fill="#FFC907"/>
<path d="M219 64.4375H213.312V70.125H219V64.4375Z" fill="#FFC907"/>
<path d="M42.6875 70.125H37V75.8125H42.6875V70.125Z" fill="#FF9E07"/>
<path d="M48.375 70.125H42.6875V75.8125H48.375V70.125Z" fill="#FF9E07"/>
<path d="M54.0625 70.125H48.375V75.8125H54.0625V70.125Z" fill="#FF9E07"/>
<path d="M59.75 70.125H54.0625V75.8125H59.75V70.125Z" fill="#FF9E07"/>
<path d="M65.4375 70.125H59.75V75.8125H65.4375V70.125Z" fill="#FF9E07"/>
<path d="M71.125 70.125H65.4375V75.8125H71.125V70.125Z" fill="#FF9E07"/>
<path d="M76.8125 70.125H71.125V75.8125H76.8125V70.125Z" fill="#FF9E07"/>
<path d="M82.5 70.125H76.8125V75.8125H82.5V70.125Z" fill="#FF9E07"/>
<path d="M88.1875 70.125H82.5V75.8125H88.1875V70.125Z" fill="#FF9E07"/>
<path d="M93.875 70.125H88.1875V75.8125H93.875V70.125Z" fill="#FF9E07"/>
<path d="M99.5625 70.125H93.875V75.8125H99.5625V70.125Z" fill="#FF9E07"/>
<path d="M105.25 70.125H99.5625V75.8125H105.25V70.125Z" fill="#FF9E07"/>
<path d="M110.938 70.125H105.25V75.8125H110.938V70.125Z" fill="#FF9E07"/>
<path d="M116.625 70.125H110.938V75.8125H116.625V70.125Z" fill="#FF9E07"/>
<path d="M122.312 70.125H116.625V75.8125H122.312V70.125Z" fill="#FF9E07"/>
<path d="M128 70.125H122.312V75.8125H128V70.125Z" fill="#FF9E07"/>
<path d="M133.688 70.125H128V75.8125H133.688V70.125Z" fill="#FF9E07"/>
<path d="M139.375 70.125H133.688V75.8125H139.375V70.125Z" fill="#FF9E07"/>
<path d="M145.062 70.125H139.375V75.8125H145.062V70.125Z" fill="#FFC907"/>
<path d="M150.75 70.125H145.062V75.8125H150.75V70.125Z" fill="#FFC907"/>
<path d="M156.438 70.125H150.75V75.8125H156.438V70.125Z" fill="#FF9E07"/>
<path d="M162.125 70.125H156.438V75.8125H162.125V70.125Z" fill="#FFC907"/>
<path d="M167.812 70.125H162.125V75.8125H167.812V70.125Z" fill="#FF9E07"/>
<path d="M173.5 70.125H167.812V75.8125H173.5V70.125Z" fill="#FFC907"/>
<path d="M179.188 70.125H173.5V75.8125H179.188V70.125Z" fill="#FFC907"/>
<path d="M184.875 70.125H179.188V75.8125H184.875V70.125Z" fill="#FFC907"/>
<path d="M190.562 70.125H184.875V75.8125H190.562V70.125Z" fill="#FFC907"/>
<path d="M196.25 70.125H190.562V75.8125H196.25V70.125Z" fill="#FFC907"/>
<path d="M201.938 70.125H196.25V75.8125H201.938V70.125Z" fill="#FFC907"/>
<path d="M207.625 70.125H201.938V75.8125H207.625V70.125Z" fill="#FFC907"/>
<path d="M213.312 70.125H207.625V75.8125H213.312V70.125Z" fill="#FFC907"/>
<path d="M219 70.125H213.312V75.8125H219V70.125Z" fill="#FFC907"/>
<path d="M42.6875 75.8125H37V81.5H42.6875V75.8125Z" fill="#FF9E07"/>
<path d="M48.375 75.8125H42.6875V81.5H48.375V75.8125Z" fill="#FF9E07"/>
<path d="M54.0625 75.8125H48.375V81.5H54.0625V75.8125Z" fill="#FF9E07"/>
<path d="M59.75 75.8125H54.0625V81.5H59.75V75.8125Z" fill="#FF9E07"/>
<path d="M65.4375 75.8125H59.75V81.5H65.4375V75.8125Z" fill="#FF9E07"/>
<path d="M71.125 75.8125H65.4375V81.5H71.125V75.8125Z" fill="#FF9E07"/>
<path d="M76.8125 75.8125H71.125V81.5H76.8125V75.8125Z" fill="#FF9E07"/>
<path d="M82.5 75.8125H76.8125V81.5H82.5V75.8125Z" fill="#FF9E07"/>
<path d="M88.1875 75.8125H82.5V81.5H88.1875V75.8125Z" fill="#FF9E07"/>
<path d="M93.875 75.8125H88.1875V81.5H93.875V75.8125Z" fill="#FF9E07"/>
<path d="M99.5625 75.8125H93.875V81.5H99.5625V75.8125Z" fill="#FF9E07"/>
<path d="M105.25 75.8125H99.5625V81.5H105.25V75.8125Z" fill="#FF9E07"/>
<path d="M110.938 75.8125H105.25V81.5H110.938V75.8125Z" fill="#FF9E07"/>
<path d="M116.625 75.8125H110.938V81.5H116.625V75.8125Z" fill="#FF9E07"/>
<path d="M122.312 75.8125H116.625V81.5H122.312V75.8125Z" fill="#FF9E07"/>
<path d="M128 75.8125H122.312V81.5H128V75.8125Z" fill="#222034"/>
<path d="M133.688 75.8125H128V81.5H133.688V75.8125Z" fill="#222034"/>
<path d="M139.375 75.8125H133.688V81.5H139.375V75.8125Z" fill="#FF9E07"/>
<path d="M145.062 75.8125H139.375V81.5H145.062V75.8125Z" fill="#FF9E07"/>
<path d="M150.75 75.8125H145.062V81.5H150.75V75.8125Z" fill="#FF9E07"/>
<path d="M156.438 75.8125H150.75V81.5H156.438V75.8125Z" fill="#FF9E07"/>
<path d="M162.125 75.8125H156.438V81.5H162.125V75.8125Z" fill="#FFC907"/>
<path d="M167.812 75.8125H162.125V81.5H167.812V75.8125Z" fill="#FF9E07"/>
<path d="M173.5 75.8125H167.812V81.5H173.5V75.8125Z" fill="#FFC907"/>
<path d="M179.188 75.8125H173.5V81.5H179.188V75.8125Z" fill="#FFC907"/>
<path d="M184.875 75.8125H179.188V81.5H184.875V75.8125Z" fill="#FFC907"/>
<path d="M190.562 75.8125H184.875V81.5H190.562V75.8125Z" fill="#FFC907"/>
<path d="M196.25 75.8125H190.562V81.5H196.25V75.8125Z" fill="#FFC907"/>
<path d="M201.938 75.8125H196.25V81.5H201.938V75.8125Z" fill="#FFC907"/>
<path d="M207.625 75.8125H201.938V81.5H207.625V75.8125Z" fill="#FFC907"/>
<path d="M213.312 75.8125H207.625V81.5H213.312V75.8125Z" fill="#FFC907"/>
<path d="M219 75.8125H213.312V81.5H219V75.8125Z" fill="#FFC907"/>
<path d="M42.6875 81.5H37V87.1875H42.6875V81.5Z" fill="#DF7126"/>
<path d="M48.375 81.5H42.6875V87.1875H48.375V81.5Z" fill="#FF9E07"/>
<path d="M54.0625 81.5H48.375V87.1875H54.0625V81.5Z" fill="#FF9E07"/>
<path d="M59.75 81.5H54.0625V87.1875H59.75V81.5Z" fill="#FF9E07"/>
<path d="M65.4375 81.5H59.75V87.1875H65.4375V81.5Z" fill="#FF9E07"/>
<path d="M71.125 81.5H65.4375V87.1875H71.125V81.5Z" fill="#FF9E07"/>
<path d="M76.8125 81.5H71.125V87.1875H76.8125V81.5Z" fill="#FF9E07"/>
<path d="M82.5 81.5H76.8125V87.1875H82.5V81.5Z" fill="#FF9E07"/>
<path d="M88.1875 81.5H82.5V87.1875H88.1875V81.5Z" fill="#FF9E07"/>
<path d="M93.875 81.5H88.1875V87.1875H93.875V81.5Z" fill="#FF9E07"/>
<path d="M99.5625 81.5H93.875V87.1875H99.5625V81.5Z" fill="#FF9E07"/>
<path d="M105.25 81.5H99.5625V87.1875H105.25V81.5Z" fill="#FF9E07"/>
<path d="M110.938 81.5H105.25V87.1875H110.938V81.5Z" fill="#FF9E07"/>
<path d="M116.625 81.5H110.938V87.1875H116.625V81.5Z" fill="#222034"/>
<path d="M122.312 81.5H116.625V87.1875H122.312V81.5Z" fill="#222034"/>
<path d="M128 81.5H122.312V87.1875H128V81.5Z" fill="#D9D9D9"/>
<path d="M133.688 81.5H128V87.1875H133.688V81.5Z" fill="#D9D9D9"/>
<path d="M139.375 81.5H133.688V87.1875H139.375V81.5Z" fill="#222034"/>
<path d="M145.062 81.5H139.375V87.1875H145.062V81.5Z" fill="#222034"/>
<path d="M150.75 81.5H145.062V87.1875H150.75V81.5Z" fill="#FFC907"/>
<path d="M156.438 81.5H150.75V87.1875H156.438V81.5Z" fill="#FF9E07"/>
<path d="M162.125 81.5H156.438V87.1875H162.125V81.5Z" fill="#FFC907"/>
<path d="M167.812 81.5H162.125V87.1875H167.812V81.5Z" fill="#FFC907"/>
<path d="M173.5 81.5H167.812V87.1875H173.5V81.5Z" fill="#FFC907"/>
<path d="M179.188 81.5H173.5V87.1875H179.188V81.5Z" fill="#FFC907"/>
<path d="M184.875 81.5H179.188V87.1875H184.875V81.5Z" fill="#FFC907"/>
<path d="M190.562 81.5H184.875V87.1875H190.562V81.5Z" fill="#FFC907"/>
<path d="M196.25 81.5H190.562V87.1875H196.25V81.5Z" fill="#FFC907"/>
<path d="M201.938 81.5H196.25V87.1875H201.938V81.5Z" fill="#FFC907"/>
<path d="M207.625 81.5H201.938V87.1875H207.625V81.5Z" fill="#FFC907"/>
<path d="M213.312 81.5H207.625V87.1875H213.312V81.5Z" fill="#FFC907"/>
<path d="M219 81.5H213.312V87.1875H219V81.5Z" fill="#FFC907"/>
<path d="M42.6875 87.1875H37V92.875H42.6875V87.1875Z" fill="#FF9E07"/>
<path d="M48.375 87.1875H42.6875V92.875H48.375V87.1875Z" fill="#FF9E07"/>
<path d="M54.0625 87.1875H48.375V92.875H54.0625V87.1875Z" fill="#DF7126"/>
<path d="M59.75 87.1875H54.0625V92.875H59.75V87.1875Z" fill="#FF9E07"/>
<path d="M65.4375 87.1875H59.75V92.875H65.4375V87.1875Z" fill="#FF9E07"/>
<path d="M71.125 87.1875H65.4375V92.875H71.125V87.1875Z" fill="#FF9E07"/>
<path d="M76.8125 87.1875H71.125V92.875H76.8125V87.1875Z" fill="#FF9E07"/>
<path d="M82.5 87.1875H76.8125V92.875H82.5V87.1875Z" fill="#FF9E07"/>
<path d="M88.1875 87.1875H82.5V92.875H88.1875V87.1875Z" fill="#FF9E07"/>
<path d="M93.875 87.1875H88.1875V92.875H93.875V87.1875Z" fill="#FF9E07"/>
<path d="M99.5625 87.1875H93.875V92.875H99.5625V87.1875Z" fill="#FF9E07"/>
<path d="M105.25 87.1875H99.5625V92.875H105.25V87.1875Z" fill="#222034"/>
<path d="M110.938 87.1875H105.25V92.875H110.938V87.1875Z" fill="#222034"/>
<path d="M116.625 87.1875H110.938V92.875H116.625V87.1875Z" fill="#D9D9D9"/>
<path d="M122.312 87.1875H116.625V92.875H122.312V87.1875Z" fill="#D9D9D9"/>
<path d="M128 87.1875H122.312V92.875H128V87.1875Z" fill="#D9D9D9"/>
<path d="M133.688 87.1875H128V92.875H133.688V87.1875Z" fill="#D9D9D9"/>
<path d="M139.375 87.1875H133.688V92.875H139.375V87.1875Z" fill="#D9D9D9"/>
<path d="M145.062 87.1875H139.375V92.875H145.062V87.1875Z" fill="#D9D9D9"/>
<path d="M150.75 87.1875H145.062V92.875H150.75V87.1875Z" fill="#222034"/>
<path d="M156.438 87.1875H150.75V92.875H156.438V87.1875Z" fill="#222034"/>
<path d="M162.125 87.1875H156.438V92.875H162.125V87.1875Z" fill="#FF9E07"/>
<path d="M167.812 87.1875H162.125V92.875H167.812V87.1875Z" fill="#FFC907"/>
<path d="M173.5 87.1875H167.812V92.875H173.5V87.1875Z" fill="#FF9E07"/>
<path d="M179.188 87.1875H173.5V92.875H179.188V87.1875Z" fill="#FFC907"/>
<path d="M184.875 87.1875H179.188V92.875H184.875V87.1875Z" fill="#FFC907"/>
<path d="M190.562 87.1875H184.875V92.875H190.562V87.1875Z" fill="#FFC907"/>
<path d="M196.25 87.1875H190.562V92.875H196.25V87.1875Z" fill="#FFC907"/>
<path d="M201.938 87.1875H196.25V92.875H201.938V87.1875Z" fill="#FFC907"/>
<path d="M207.625 87.1875H201.938V92.875H207.625V87.1875Z" fill="#FFC907"/>
<path d="M213.312 87.1875H207.625V92.875H213.312V87.1875Z" fill="#FFC907"/>
<path d="M219 87.1875H213.312V92.875H219V87.1875Z" fill="#FFC907"/>
<path d="M42.6875 92.875H37V98.5625H42.6875V92.875Z" fill="#DF7126"/>
<path d="M48.375 92.875H42.6875V98.5625H48.375V92.875Z" fill="#FF9E07"/>
<path d="M54.0625 92.875H48.375V98.5625H54.0625V92.875Z" fill="#DF7126"/>
<path d="M59.75 92.875H54.0625V98.5625H59.75V92.875Z" fill="#DF7126"/>
<path d="M65.4375 92.875H59.75V98.5625H65.4375V92.875Z" fill="#FF9E07"/>
<path d="M71.125 92.875H65.4375V98.5625H71.125V92.875Z" fill="#FF9E07"/>
<path d="M76.8125 92.875H71.125V98.5625H76.8125V92.875Z" fill="#FF9E07"/>
<path d="M82.5 92.875H76.8125V98.5625H82.5V92.875Z" fill="#FF9E07"/>
<path d="M88.1875 92.875H82.5V98.5625H88.1875V92.875Z" fill="#FF9E07"/>
<path d="M93.875 92.875H88.1875V98.5625H93.875V92.875Z" fill="#222034"/>
<path d="M99.5625 92.875H93.875V98.5625H99.5625V92.875Z" fill="#222034"/>
<path d="M105.25 92.875H99.5625V98.5625H105.25V92.875Z" fill="#D9D9D9"/>
<path d="M110.938 92.875H105.25V98.5625H110.938V92.875Z" fill="#D9D9D9"/>
<path d="M116.625 92.875H110.938V98.5625H116.625V92.875Z" fill="#D9D9D9"/>
<path d="M122.312 92.875H116.625V98.5625H122.312V92.875Z" fill="#D9D9D9"/>
<path d="M128 92.875H122.312V98.5625H128V92.875Z" fill="#D9D9D9"/>
<path d="M133.688 92.875H128V98.5625H133.688V92.875Z" fill="#D9D9D9"/>
<path d="M139.375 92.875H133.688V98.5625H139.375V92.875Z" fill="#D9D9D9"/>
<path d="M145.062 92.875H139.375V98.5625H145.062V92.875Z" fill="#D9D9D9"/>
<path d="M150.75 92.875H145.062V98.5625H150.75V92.875Z" fill="#D9D9D9"/>
<path d="M156.438 92.875H150.75V98.5625H156.438V92.875Z" fill="#D9D9D9"/>
<path d="M162.125 92.875H156.438V98.5625H162.125V92.875Z" fill="#222034"/>
<path d="M167.812 92.875H162.125V98.5625H167.812V92.875Z" fill="#222034"/>
<path d="M173.5 92.875H167.812V98.5625H173.5V92.875Z" fill="#FFC907"/>
<path d="M179.188 92.875H173.5V98.5625H179.188V92.875Z" fill="#FF9E07"/>
<path d="M184.875 92.875H179.188V98.5625H184.875V92.875Z" fill="#FFC907"/>
<path d="M190.562 92.875H184.875V98.5625H190.562V92.875Z" fill="#FFC907"/>
<path d="M196.25 92.875H190.562V98.5625H196.25V92.875Z" fill="#FFC907"/>
<path d="M201.938 92.875H196.25V98.5625H201.938V92.875Z" fill="#FFC907"/>
<path d="M207.625 92.875H201.938V98.5625H207.625V92.875Z" fill="#FFC907"/>
<path d="M213.312 92.875H207.625V98.5625H213.312V92.875Z" fill="#FFC907"/>
<path d="M219 92.875H213.312V98.5625H219V92.875Z" fill="#FFC907"/>
<path d="M42.6875 98.5625H37V104.25H42.6875V98.5625Z" fill="#DF7126"/>
<path d="M48.375 98.5625H42.6875V104.25H48.375V98.5625Z" fill="#FF9E07"/>
<path d="M54.0625 98.5625H48.375V104.25H54.0625V98.5625Z" fill="#FF9E07"/>
<path d="M59.75 98.5625H54.0625V104.25H59.75V98.5625Z" fill="#FF9E07"/>
<path d="M65.4375 98.5625H59.75V104.25H65.4375V98.5625Z" fill="#FF9E07"/>
<path d="M71.125 98.5625H65.4375V104.25H71.125V98.5625Z" fill="#FF9E07"/>
<path d="M76.8125 98.5625H71.125V104.25H76.8125V98.5625Z" fill="#FF9E07"/>
<path d="M82.5 98.5625H76.8125V104.25H82.5V98.5625Z" fill="#FF9E07"/>
<path d="M88.1875 98.5625H82.5V104.25H88.1875V98.5625Z" fill="#222034"/>
<path d="M93.875 98.5625H88.1875V104.25H93.875V98.5625Z" fill="#D9D9D9"/>
<path d="M99.5625 98.5625H93.875V104.25H99.5625V98.5625Z" fill="#D9D9D9"/>
<path d="M105.25 98.5625H99.5625V104.25H105.25V98.5625Z" fill="#D9D9D9"/>
<path d="M110.938 98.5625H105.25V104.25H110.938V98.5625Z" fill="#D9D9D9"/>
<path d="M116.625 98.5625H110.938V104.25H116.625V98.5625Z" fill="#D9D9D9"/>
<path d="M122.312 98.5625H116.625V104.25H122.312V98.5625Z" fill="#D9D9D9"/>
<path d="M128 98.5625H122.312V104.25H128V98.5625Z" fill="#D9D9D9"/>
<path d="M133.688 98.5625H128V104.25H133.688V98.5625Z" fill="#D9D9D9"/>
<path d="M139.375 98.5625H133.688V104.25H139.375V98.5625Z" fill="#D9D9D9"/>
<path d="M145.062 98.5625H139.375V104.25H145.062V98.5625Z" fill="#D9D9D9"/>
<path d="M150.75 98.5625H145.062V104.25H150.75V98.5625Z" fill="#D9D9D9"/>
<path d="M156.438 98.5625H150.75V104.25H156.438V98.5625Z" fill="#D9D9D9"/>
<path d="M162.125 98.5625H156.438V104.25H162.125V98.5625Z" fill="#EEEEEE"/>
<path d="M167.812 98.5625H162.125V104.25H167.812V98.5625Z" fill="#EEEEEE"/>
<path d="M173.5 98.5625H167.812V104.25H173.5V98.5625Z" fill="#161522"/>
<path d="M179.188 98.5625H173.5V104.25H179.188V98.5625Z" fill="#FFC907"/>
<path d="M184.875 98.5625H179.188V104.25H184.875V98.5625Z" fill="#FFC907"/>
<path d="M190.562 98.5625H184.875V104.25H190.562V98.5625Z" fill="#FFC907"/>
<path d="M196.25 98.5625H190.562V104.25H196.25V98.5625Z" fill="#FFC907"/>
<path d="M201.938 98.5625H196.25V104.25H201.938V98.5625Z" fill="#FFC907"/>
<path d="M207.625 98.5625H201.938V104.25H207.625V98.5625Z" fill="#FFC907"/>
<path d="M213.312 98.5625H207.625V104.25H213.312V98.5625Z" fill="#FFC907"/>
<path d="M219 98.5625H213.312V104.25H219V98.5625Z" fill="#FFC907"/>
<path d="M42.6875 104.25H37V109.938H42.6875V104.25Z" fill="#DF7126"/>
<path d="M48.375 104.25H42.6875V109.938H48.375V104.25Z" fill="#DF7126"/>
<path d="M54.0625 104.25H48.375V109.938H54.0625V104.25Z" fill="#FF9E07"/>
<path d="M59.75 104.25H54.0625V109.938H59.75V104.25Z" fill="#FF9E07"/>
<path d="M65.4375 104.25H59.75V109.938H65.4375V104.25Z" fill="#FF9E07"/>
<path d="M71.125 104.25H65.4375V109.938H71.125V104.25Z" fill="#FF9E07"/>
<path d="M76.8125 104.25H71.125V109.938H76.8125V104.25Z" fill="#FF9E07"/>
<path d="M82.5 104.25H76.8125V109.938H82.5V104.25Z" fill="#161522"/>
<path d="M88.1875 104.25H82.5V109.938H88.1875V104.25Z" fill="#D5D5D5"/>
<path d="M93.875 104.25H88.1875V109.938H93.875V104.25Z" fill="#222034"/>
<path d="M99.5625 104.25H93.875V109.938H99.5625V104.25Z" fill="#222034"/>
<path d="M105.25 104.25H99.5625V109.938H105.25V104.25Z" fill="#D9D9D9"/>
<path d="M110.938 104.25H105.25V109.938H110.938V104.25Z" fill="#D9D9D9"/>
<path d="M116.625 104.25H110.938V109.938H116.625V104.25Z" fill="#D9D9D9"/>
<path d="M122.312 104.25H116.625V109.938H122.312V104.25Z" fill="#D9D9D9"/>
<path d="M128 104.25H122.312V109.938H128V104.25Z" fill="#D9D9D9"/>
<path d="M133.688 104.25H128V109.938H133.688V104.25Z" fill="#D9D9D9"/>
<path d="M139.375 104.25H133.688V109.938H139.375V104.25Z" fill="#D9D9D9"/>
<path d="M145.062 104.25H139.375V109.938H145.062V104.25Z" fill="#D9D9D9"/>
<path d="M150.75 104.25H145.062V109.938H150.75V104.25Z" fill="#EEEEEE"/>
<path d="M156.438 104.25H150.75V109.938H156.438V104.25Z" fill="#EEEEEE"/>
<path d="M162.125 104.25H156.438V109.938H162.125V104.25Z" fill="#161522"/>
<path d="M167.812 104.25H162.125V109.938H167.812V104.25Z" fill="#161522"/>
<path d="M173.5 104.25H167.812V109.938H173.5V104.25Z" fill="#AAAAAA"/>
<path d="M179.188 104.25H173.5V109.938H179.188V104.25Z" fill="#161522"/>
<path d="M184.875 104.25H179.188V109.938H184.875V104.25Z" fill="#FFC907"/>
<path d="M190.562 104.25H184.875V109.938H190.562V104.25Z" fill="#FF9E07"/>
<path d="M196.25 104.25H190.562V109.938H196.25V104.25Z" fill="#FF9E07"/>
<path d="M201.938 104.25H196.25V109.938H201.938V104.25Z" fill="#FFC907"/>
<path d="M207.625 104.25H201.938V109.938H207.625V104.25Z" fill="#FFC907"/>
<path d="M213.312 104.25H207.625V109.938H213.312V104.25Z" fill="#FFC907"/>
<path d="M219 104.25H213.312V109.938H219V104.25Z" fill="#FFC907"/>
<path d="M42.6875 109.938H37V115.625H42.6875V109.938Z" fill="#DF7126"/>
<path d="M48.375 109.938H42.6875V115.625H48.375V109.938Z" fill="#FF9E07"/>
<path d="M54.0625 109.938H48.375V115.625H54.0625V109.938Z" fill="#DF7126"/>
<path d="M59.75 109.938H54.0625V115.625H59.75V109.938Z" fill="#FF9E07"/>
<path d="M65.4375 109.938H59.75V115.625H65.4375V109.938Z" fill="#FF9E07"/>
<path d="M71.125 109.938H65.4375V115.625H71.125V109.938Z" fill="#FF9E07"/>
<path d="M76.8125 109.938H71.125V115.625H76.8125V109.938Z" fill="#FF9E07"/>
<path d="M82.5 109.938H76.8125V115.625H82.5V109.938Z" fill="#161522"/>
<path d="M88.1875 109.938H82.5V115.625H88.1875V109.938Z" fill="#D5D5D5"/>
<path d="M93.875 109.938H88.1875V115.625H93.875V109.938Z" fill="#D5D5D5"/>
<path d="M99.5625 109.938H93.875V115.625H99.5625V109.938Z" fill="#D5D5D5"/>
<path d="M105.25 109.938H99.5625V115.625H105.25V109.938Z" fill="#222034"/>
<path d="M110.938 109.938H105.25V115.625H110.938V109.938Z" fill="#222034"/>
<path d="M116.625 109.938H110.938V115.625H116.625V109.938Z" fill="#D9D9D9"/>
<path d="M122.312 109.938H116.625V115.625H122.312V109.938Z" fill="#D9D9D9"/>
<path d="M128 109.938H122.312V115.625H128V109.938Z" fill="#D9D9D9"/>
<path d="M133.688 109.938H128V115.625H133.688V109.938Z" fill="#D9D9D9"/>
<path d="M139.375 109.938H133.688V115.625H139.375V109.938Z" fill="#EEEEEE"/>
<path d="M145.062 109.938H139.375V115.625H145.062V109.938Z" fill="#EEEEEE"/>
<path d="M150.75 109.938H145.062V115.625H150.75V109.938Z" fill="#161522"/>
<path d="M156.438 109.938H150.75V115.625H156.438V109.938Z" fill="#161522"/>
<path d="M162.125 109.938H156.438V115.625H162.125V109.938Z" fill="#AAAAAA"/>
<path d="M167.812 109.938H162.125V115.625H167.812V109.938Z" fill="#AAAAAA"/>
<path d="M173.5 109.938H167.812V115.625H173.5V109.938Z" fill="#AAAAAA"/>
<path d="M179.188 109.938H173.5V115.625H179.188V109.938Z" fill="#161522"/>
<path d="M184.875 109.938H179.188V115.625H184.875V109.938Z" fill="#FFC907"/>
<path d="M190.562 109.938H184.875V115.625H190.562V109.938Z" fill="#FFC907"/>
<path d="M196.25 109.938H190.562V115.625H196.25V109.938Z" fill="#FFC907"/>
<path d="M201.938 109.938H196.25V115.625H201.938V109.938Z" fill="#FFC907"/>
<path d="M207.625 109.938H201.938V115.625H207.625V109.938Z" fill="#FF9E07"/>
<path d="M213.312 109.938H207.625V115.625H213.312V109.938Z" fill="#FFC907"/>
<path d="M219 109.938H213.312V115.625H219V109.938Z" fill="#FFC907"/>
<path d="M42.6875 115.625H37V121.312H42.6875V115.625Z" fill="#DF7126"/>
<path d="M48.375 115.625H42.6875V121.312H48.375V115.625Z" fill="#FF9E07"/>
<path d="M54.0625 115.625H48.375V121.312H54.0625V115.625Z" fill="#FF9E07"/>
<path d="M59.75 115.625H54.0625V121.312H59.75V115.625Z" fill="#FF9E07"/>
<path d="M65.4375 115.625H59.75V121.312H65.4375V115.625Z" fill="#DF7126"/>
<path d="M71.125 115.625H65.4375V121.312H71.125V115.625Z" fill="#DF7126"/>
<path d="M76.8125 115.625H71.125V121.312H76.8125V115.625Z" fill="#161522"/>
<path d="M82.5 115.625H76.8125V121.312H82.5V115.625Z" fill="#D5D5D5"/>
<path d="M88.1875 115.625H82.5V121.312H88.1875V115.625Z" fill="#D5D5D5"/>
<path d="M93.875 115.625H88.1875V121.312H93.875V115.625Z" fill="#D5D5D5"/>
<path d="M99.5625 115.625H93.875V121.312H99.5625V115.625Z" fill="#D5D5D5"/>
<path d="M105.25 115.625H99.5625V121.312H105.25V115.625Z" fill="#D5D5D5"/>
<path d="M110.938 115.625H105.25V121.312H110.938V115.625Z" fill="#D5D5D5"/>
<path d="M116.625 115.625H110.938V121.312H116.625V115.625Z" fill="#222034"/>
<path d="M122.312 115.625H116.625V121.312H122.312V115.625Z" fill="#222034"/>
<path d="M128 115.625H122.312V121.312H128V115.625Z" fill="#EEEEEE"/>
<path d="M133.688 115.625H128V121.312H133.688V115.625Z" fill="#EEEEEE"/>
<path d="M139.375 115.625H133.688V121.312H139.375V115.625Z" fill="#161522"/>
<path d="M145.062 115.625H139.375V121.312H145.062V115.625Z" fill="#161522"/>
<path d="M150.75 115.625H145.062V121.312H150.75V115.625Z" fill="#AAAAAA"/>
<path d="M156.438 115.625H150.75V121.312H156.438V115.625Z" fill="#AAAAAA"/>
<path d="M162.125 115.625H156.438V121.312H162.125V115.625Z" fill="#AAAAAA"/>
<path d="M167.812 115.625H162.125V121.312H167.812V115.625Z" fill="#AAAAAA"/>
<path d="M173.5 115.625H167.812V121.312H173.5V115.625Z" fill="#AAAAAA"/>
<path d="M179.188 115.625H173.5V121.312H179.188V115.625Z" fill="#AAAAAA"/>
<path d="M184.875 115.625H179.188V121.312H184.875V115.625Z" fill="#161522"/>
<path d="M190.562 115.625H184.875V121.312H190.562V115.625Z" fill="#FFC907"/>
<path d="M196.25 115.625H190.562V121.312H196.25V115.625Z" fill="#FFC907"/>
<path d="M201.938 115.625H196.25V121.312H201.938V115.625Z" fill="#FFC907"/>
<path d="M207.625 115.625H201.938V121.312H207.625V115.625Z" fill="#FFC907"/>
<path d="M213.312 115.625H207.625V121.312H213.312V115.625Z" fill="#FF9E07"/>
<path d="M219 115.625H213.312V121.312H219V115.625Z" fill="#FFC907"/>
<path d="M42.6875 121.312H37V127H42.6875V121.312Z" fill="#DF7126"/>
<path d="M48.375 121.312H42.6875V127H48.375V121.312Z" fill="#FF9E07"/>
<path d="M54.0625 121.312H48.375V127H54.0625V121.312Z" fill="#FF9E07"/>
<path d="M59.75 121.312H54.0625V127H59.75V121.312Z" fill="#FF9E07"/>
<path d="M65.4375 121.312H59.75V127H65.4375V121.312Z" fill="#FF9E07"/>
<path d="M71.125 121.312H65.4375V127H71.125V121.312Z" fill="#FF9E07"/>
<path d="M76.8125 121.312H71.125V127H76.8125V121.312Z" fill="#161522"/>
<path d="M82.5 121.312H76.8125V127H82.5V121.312Z" fill="#D5D5D5"/>
<path d="M88.1875 121.312H82.5V127H88.1875V121.312Z" fill="#D5D5D5"/>
<path d="M93.875 121.312H88.1875V127H93.875V121.312Z" fill="#D5D5D5"/>
<path d="M99.5625 121.312H93.875V127H99.5625V121.312Z" fill="#D5D5D5"/>
<path d="M105.25 121.312H99.5625V127H105.25V121.312Z" fill="#D5D5D5"/>
<path d="M110.938 121.312H105.25V127H110.938V121.312Z" fill="#D5D5D5"/>
<path d="M116.625 121.312H110.938V127H116.625V121.312Z" fill="#D5D5D5"/>
<path d="M122.312 121.312H116.625V127H122.312V121.312Z" fill="#D5D5D5"/>
<path d="M128 121.312H122.312V127H128V121.312Z" fill="#161522"/>
<path d="M133.688 121.312H128V127H133.688V121.312Z" fill="#161522"/>
<path d="M139.375 121.312H133.688V127H139.375V121.312Z" fill="#AAAAAA"/>
<path d="M145.062 121.312H139.375V127H145.062V121.312Z" fill="#AAAAAA"/>
<path d="M150.75 121.312H145.062V127H150.75V121.312Z" fill="#AAAAAA"/>
<path d="M156.438 121.312H150.75V127H156.438V121.312Z" fill="#AAAAAA"/>
<path d="M162.125 121.312H156.438V127H162.125V121.312Z" fill="#AAAAAA"/>
<path d="M167.812 121.312H162.125V127H167.812V121.312Z" fill="#AAAAAA"/>
<path d="M173.5 121.312H167.812V127H173.5V121.312Z" fill="#AAAAAA"/>
<path d="M179.188 121.312H173.5V127H179.188V121.312Z" fill="#AAAAAA"/>
<path d="M184.875 121.312H179.188V127H184.875V121.312Z" fill="#161522"/>
<path d="M190.562 121.312H184.875V127H190.562V121.312Z" fill="#FF9E07"/>
<path d="M196.25 121.312H190.562V127H196.25V121.312Z" fill="#FF9E07"/>
<path d="M201.938 121.312H196.25V127H201.938V121.312Z" fill="#FF9E07"/>
<path d="M207.625 121.312H201.938V127H207.625V121.312Z" fill="#FFC907"/>
<path d="M213.312 121.312H207.625V127H213.312V121.312Z" fill="#FF9E07"/>
<path d="M219 121.312H213.312V127H219V121.312Z" fill="#FFC907"/>
<path d="M42.6875 127H37V132.688H42.6875V127Z" fill="#DF7126"/>
<path d="M48.375 127H42.6875V132.688H48.375V127Z" fill="#DF7126"/>
<path d="M54.0625 127H48.375V132.688H54.0625V127Z" fill="#DF7126"/>
<path d="M59.75 127H54.0625V132.688H59.75V127Z" fill="#FF9E07"/>
<path d="M65.4375 127H59.75V132.688H65.4375V127Z" fill="#FF9E07"/>
<path d="M71.125 127H65.4375V132.688H71.125V127Z" fill="#DF7126"/>
<path d="M76.8125 127H71.125V132.688H76.8125V127Z" fill="#161522"/>
<path d="M82.5 127H76.8125V132.688H82.5V127Z" fill="#D5D5D5"/>
<path d="M88.1875 127H82.5V132.688H88.1875V127Z" fill="#D5D5D5"/>
<path d="M93.875 127H88.1875V132.688H93.875V127Z" fill="#D5D5D5"/>
<path d="M99.5625 127H93.875V132.688H99.5625V127Z" fill="#D5D5D5"/>
<path d="M105.25 127H99.5625V132.688H105.25V127Z" fill="#D5D5D5"/>
<path d="M110.938 127H105.25V132.688H110.938V127Z" fill="#D5D5D5"/>
<path d="M116.625 127H110.938V132.688H116.625V127Z" fill="#D5D5D5"/>
<path d="M122.312 127H116.625V132.688H122.312V127Z" fill="#D5D5D5"/>
<path d="M128 127H122.312V132.688H128V127Z" fill="#161522"/>
<path d="M133.688 127H128V132.688H133.688V127Z" fill="#BABABA"/>
<path d="M139.375 127H133.688V132.688H139.375V127Z" fill="#AAAAAA"/>
<path d="M145.062 127H139.375V132.688H145.062V127Z" fill="#AAAAAA"/>
<path d="M150.75 127H145.062V132.688H150.75V127Z" fill="#AAAAAA"/>
<path d="M156.438 127H150.75V132.688H156.438V127Z" fill="#AAAAAA"/>
<path d="M162.125 127H156.438V132.688H162.125V127Z" fill="#AAAAAA"/>
<path d="M167.812 127H162.125V132.688H167.812V127Z" fill="#AAAAAA"/>
<path d="M173.5 127H167.812V132.688H173.5V127Z" fill="#AAAAAA"/>
<path d="M179.188 127H173.5V132.688H179.188V127Z" fill="#AAAAAA"/>
<path d="M184.875 127H179.188V132.688H184.875V127Z" fill="#161522"/>
<path d="M190.562 127H184.875V132.688H190.562V127Z" fill="#FFC907"/>
<path d="M196.25 127H190.562V132.688H196.25V127Z" fill="#FFC907"/>
<path d="M201.938 127H196.25V132.688H201.938V127Z" fill="#FF9E07"/>
<path d="M207.625 127H201.938V132.688H207.625V127Z" fill="#FFC907"/>
<path d="M213.312 127H207.625V132.688H213.312V127Z" fill="#FFC907"/>
<path d="M219 127H213.312V132.688H219V127Z" fill="#FF9E07"/>
<path d="M42.6875 132.688H37V138.375H42.6875V132.688Z" fill="#DF7126"/>
<path d="M48.375 132.688H42.6875V138.375H48.375V132.688Z" fill="#DF7126"/>
<path d="M54.0625 132.688H48.375V138.375H54.0625V132.688Z" fill="#DF7126"/>
<path d="M59.75 132.688H54.0625V138.375H59.75V132.688Z" fill="#DF7126"/>
<path d="M65.4375 132.688H59.75V138.375H65.4375V132.688Z" fill="#FF9E07"/>
<path d="M71.125 132.688H65.4375V138.375H71.125V132.688Z" fill="#161522"/>
<path d="M76.8125 132.688H71.125V138.375H76.8125V132.688Z" fill="#BFBFBF"/>
<path d="M82.5 132.688H76.8125V138.375H82.5V132.688Z" fill="#D5D5D5"/>
<path d="M88.1875 132.688H82.5V138.375H88.1875V132.688Z" fill="#D5D5D5"/>
<path d="M93.875 132.688H88.1875V138.375H93.875V132.688Z" fill="#D5D5D5"/>
<path d="M99.5625 132.688H93.875V138.375H99.5625V132.688Z" fill="#D5D5D5"/>
<path d="M105.25 132.688H99.5625V138.375H105.25V132.688Z" fill="#D5D5D5"/>
<path d="M110.938 132.688H105.25V138.375H110.938V132.688Z" fill="#D5D5D5"/>
<path d="M116.625 132.688H110.938V138.375H116.625V132.688Z" fill="#D5D5D5"/>
<path d="M122.312 132.688H116.625V138.375H122.312V132.688Z" fill="#D5D5D5"/>
<path d="M128 132.688H122.312V138.375H128V132.688Z" fill="#161522"/>
<path d="M133.688 132.688H128V138.375H133.688V132.688Z" fill="#BABABA"/>
<path d="M139.375 132.688H133.688V138.375H139.375V132.688Z" fill="#AAAAAA"/>
<path d="M145.062 132.688H139.375V138.375H145.062V132.688Z" fill="#AAAAAA"/>
<path d="M150.75 132.688H145.062V138.375H150.75V132.688Z" fill="#AAAAAA"/>
<path d="M156.438 132.688H150.75V138.375H156.438V132.688Z" fill="#AAAAAA"/>
<path d="M162.125 132.688H156.438V138.375H162.125V132.688Z" fill="#AAAAAA"/>
<path d="M167.812 132.688H162.125V138.375H167.812V132.688Z" fill="#AAAAAA"/>
<path d="M173.5 132.688H167.812V138.375H173.5V132.688Z" fill="#AAAAAA"/>
<path d="M179.188 132.688H173.5V138.375H179.188V132.688Z" fill="#AAAAAA"/>
<path d="M184.875 132.688H179.188V138.375H184.875V132.688Z" fill="#AAAAAA"/>
<path d="M190.562 132.688H184.875V138.375H190.562V132.688Z" fill="#161522"/>
<path d="M196.25 132.688H190.562V138.375H196.25V132.688Z" fill="#FF9E07"/>
<path d="M201.938 132.688H196.25V138.375H201.938V132.688Z" fill="#FF9E07"/>
<path d="M207.625 132.688H201.938V138.375H207.625V132.688Z" fill="#FFC907"/>
<path d="M213.312 132.688H207.625V138.375H213.312V132.688Z" fill="#FF9E07"/>
<path d="M219 132.688H213.312V138.375H219V132.688Z" fill="#FFC907"/>
<path d="M42.6875 138.375H37V144.062H42.6875V138.375Z" fill="#DF7126"/>
<path d="M48.375 138.375H42.6875V144.062H48.375V138.375Z" fill="#DF7126"/>
<path d="M54.0625 138.375H48.375V144.062H54.0625V138.375Z" fill="#FF9E07"/>
<path d="M59.75 138.375H54.0625V144.062H59.75V138.375Z" fill="#DF7126"/>
<path d="M65.4375 138.375H59.75V144.062H65.4375V138.375Z" fill="#DF7126"/>
<path d="M71.125 138.375H65.4375V144.062H71.125V138.375Z" fill="#161522"/>
<path d="M76.8125 138.375H71.125V144.062H76.8125V138.375Z" fill="#BFBFBF"/>
<path d="M82.5 138.375H76.8125V144.062H82.5V138.375Z" fill="#D5D5D5"/>
<path d="M88.1875 138.375H82.5V144.062H88.1875V138.375Z" fill="#D5D5D5"/>
<path d="M93.875 138.375H88.1875V144.062H93.875V138.375Z" fill="#D5D5D5"/>
<path d="M99.5625 138.375H93.875V144.062H99.5625V138.375Z" fill="#D5D5D5"/>
<path d="M105.25 138.375H99.5625V144.062H105.25V138.375Z" fill="#D5D5D5"/>
<path d="M110.938 138.375H105.25V144.062H110.938V138.375Z" fill="#D5D5D5"/>
<path d="M116.625 138.375H110.938V144.062H116.625V138.375Z" fill="#D5D5D5"/>
<path d="M122.312 138.375H116.625V144.062H122.312V138.375Z" fill="#D5D5D5"/>
<path d="M128 138.375H122.312V144.062H128V138.375Z" fill="#161522"/>
<path d="M133.688 138.375H128V144.062H133.688V138.375Z" fill="#BABABA"/>
<path d="M139.375 138.375H133.688V144.062H139.375V138.375Z" fill="#AAAAAA"/>
<path d="M145.062 138.375H139.375V144.062H145.062V138.375Z" fill="#AAAAAA"/>
<path d="M150.75 138.375H145.062V144.062H150.75V138.375Z" fill="#AAAAAA"/>
<path d="M156.438 138.375H150.75V144.062H156.438V138.375Z" fill="#AAAAAA"/>
<path d="M162.125 138.375H156.438V144.062H162.125V138.375Z" fill="#AAAAAA"/>
<path d="M167.812 138.375H162.125V144.062H167.812V138.375Z" fill="#AAAAAA"/>
<path d="M173.5 138.375H167.812V144.062H173.5V138.375Z" fill="#AAAAAA"/>
<path d="M179.188 138.375H173.5V144.062H179.188V138.375Z" fill="#AAAAAA"/>
<path d="M184.875 138.375H179.188V144.062H184.875V138.375Z" fill="#999999"/>
<path d="M190.562 138.375H184.875V144.062H190.562V138.375Z" fill="#161522"/>
<path d="M196.25 138.375H190.562V144.062H196.25V138.375Z" fill="#C87E0D"/>
<path d="M201.938 138.375H196.25V144.062H201.938V138.375Z" fill="#FFC907"/>
<path d="M207.625 138.375H201.938V144.062H207.625V138.375Z" fill="#FF9E07"/>
<path d="M213.312 138.375H207.625V144.062H213.312V138.375Z" fill="#FF9E07"/>
<path d="M219 138.375H213.312V144.062H219V138.375Z" fill="#FF9E07"/>
<path d="M42.6875 144.062H37V149.75H42.6875V144.062Z" fill="#DF7126"/>
<path d="M48.375 144.062H42.6875V149.75H48.375V144.062Z" fill="#DF7126"/>
<path d="M54.0625 144.062H48.375V149.75H54.0625V144.062Z" fill="#DF7126"/>
<path d="M59.75 144.062H54.0625V149.75H59.75V144.062Z" fill="#FF9E07"/>
<path d="M65.4375 144.062H59.75V149.75H65.4375V144.062Z" fill="#DF7126"/>
<path d="M71.125 144.062H65.4375V149.75H71.125V144.062Z" fill="#161522"/>
<path d="M76.8125 144.062H71.125V149.75H76.8125V144.062Z" fill="#BFBFBF"/>
<path d="M82.5 144.062H76.8125V149.75H82.5V144.062Z" fill="#D5D5D5"/>
<path d="M88.1875 144.062H82.5V149.75H88.1875V144.062Z" fill="#D5D5D5"/>
<path d="M93.875 144.062H88.1875V149.75H93.875V144.062Z" fill="#D5D5D5"/>
<path d="M99.5625 144.062H93.875V149.75H99.5625V144.062Z" fill="#D5D5D5"/>
<path d="M105.25 144.062H99.5625V149.75H105.25V144.062Z" fill="#D5D5D5"/>
<path d="M110.938 144.062H105.25V149.75H110.938V144.062Z" fill="#D5D5D5"/>
<path d="M116.625 144.062H110.938V149.75H116.625V144.062Z" fill="#D5D5D5"/>
<path d="M122.312 144.062H116.625V149.75H122.312V144.062Z" fill="#D5D5D5"/>
<path d="M128 144.062H122.312V149.75H128V144.062Z" fill="#161522"/>
<path d="M133.688 144.062H128V149.75H133.688V144.062Z" fill="#BABABA"/>
<path d="M139.375 144.062H133.688V149.75H139.375V144.062Z" fill="#AAAAAA"/>
<path d="M145.062 144.062H139.375V149.75H145.062V144.062Z" fill="#AAAAAA"/>
<path d="M150.75 144.062H145.062V149.75H150.75V144.062Z" fill="#AAAAAA"/>
<path d="M156.438 144.062H150.75V149.75H156.438V144.062Z" fill="#AAAAAA"/>
<path d="M162.125 144.062H156.438V149.75H162.125V144.062Z" fill="#AAAAAA"/>
<path d="M167.812 144.062H162.125V149.75H167.812V144.062Z" fill="#AAAAAA"/>
<path d="M173.5 144.062H167.812V149.75H173.5V144.062Z" fill="#AAAAAA"/>
<path d="M179.188 144.062H173.5V149.75H179.188V144.062Z" fill="#AAAAAA"/>
<path d="M184.875 144.062H179.188V149.75H184.875V144.062Z" fill="#999999"/>
<path d="M190.562 144.062H184.875V149.75H190.562V144.062Z" fill="#161522"/>
<path d="M196.25 144.062H190.562V149.75H196.25V144.062Z" fill="#A76A11"/>
<path d="M201.938 144.062H196.25V149.75H201.938V144.062Z" fill="#FF9E07"/>
<path d="M207.625 144.062H201.938V149.75H207.625V144.062Z" fill="#FFC907"/>
<path d="M213.312 144.062H207.625V149.75H213.312V144.062Z" fill="#FF9E07"/>
<path d="M219 144.062H213.312V149.75H219V144.062Z" fill="#FF9E07"/>
<path d="M42.6875 149.75H37V155.438H42.6875V149.75Z" fill="#DF7126"/>
<path d="M48.375 149.75H42.6875V155.438H48.375V149.75Z" fill="#DF7126"/>
<path d="M54.0625 149.75H48.375V155.438H54.0625V149.75Z" fill="#DF7126"/>
<path d="M59.75 149.75H54.0625V155.438H59.75V149.75Z" fill="#DF7126"/>
<path d="M65.4375 149.75H59.75V155.438H65.4375V149.75Z" fill="#FF9E07"/>
<path d="M71.125 149.75H65.4375V155.438H71.125V149.75Z" fill="#161522"/>
<path d="M76.8125 149.75H71.125V155.438H76.8125V149.75Z" fill="#161522"/>
<path d="M82.5 149.75H76.8125V155.438H82.5V149.75Z" fill="#BFBFBF"/>
<path d="M88.1875 149.75H82.5V155.438H88.1875V149.75Z" fill="#BFBFBF"/>
<path d="M93.875 149.75H88.1875V155.438H93.875V149.75Z" fill="#D5D5D5"/>
<path d="M99.5625 149.75H93.875V155.438H99.5625V149.75Z" fill="#D5D5D5"/>
<path d="M105.25 149.75H99.5625V155.438H105.25V149.75Z" fill="#D5D5D5"/>
<path d="M110.938 149.75H105.25V155.438H110.938V149.75Z" fill="#D5D5D5"/>
<path d="M116.625 149.75H110.938V155.438H116.625V149.75Z" fill="#D5D5D5"/>
<path d="M122.312 149.75H116.625V155.438H122.312V149.75Z" fill="#D5D5D5"/>
<path d="M128 149.75H122.312V155.438H128V149.75Z" fill="#161522"/>
<path d="M133.688 149.75H128V155.438H133.688V149.75Z" fill="#BABABA"/>
<path d="M139.375 149.75H133.688V155.438H139.375V149.75Z" fill="#AAAAAA"/>
<path d="M145.062 149.75H139.375V155.438H145.062V149.75Z" fill="#AAAAAA"/>
<path d="M150.75 149.75H145.062V155.438H150.75V149.75Z" fill="#AAAAAA"/>
<path d="M156.438 149.75H150.75V155.438H156.438V149.75Z" fill="#AAAAAA"/>
<path d="M162.125 149.75H156.438V155.438H162.125V149.75Z" fill="#AAAAAA"/>
<path d="M167.812 149.75H162.125V155.438H167.812V149.75Z" fill="#AAAAAA"/>
<path d="M173.5 149.75H167.812V155.438H173.5V149.75Z" fill="#999999"/>
<path d="M179.188 149.75H173.5V155.438H179.188V149.75Z" fill="#999999"/>
<path d="M184.875 149.75H179.188V155.438H184.875V149.75Z" fill="#161522"/>
<path d="M190.562 149.75H184.875V155.438H190.562V149.75Z" fill="#161522"/>
<path d="M196.25 149.75H190.562V155.438H196.25V149.75Z" fill="#A76A11"/>
<path d="M201.938 149.75H196.25V155.438H201.938V149.75Z" fill="#FF9E07"/>
<path d="M207.625 149.75H201.938V155.438H207.625V149.75Z" fill="#FF9E07"/>
<path d="M213.312 149.75H207.625V155.438H213.312V149.75Z" fill="#FFC907"/>
<path d="M219 149.75H213.312V155.438H219V149.75Z" fill="#FFC907"/>
<path d="M42.6875 155.438H37V161.125H42.6875V155.438Z" fill="#DF7126"/>
<path d="M48.375 155.438H42.6875V161.125H48.375V155.438Z" fill="#DF7126"/>
<path d="M54.0625 155.438H48.375V161.125H54.0625V155.438Z" fill="#DF7126"/>
<path d="M59.75 155.438H54.0625V161.125H59.75V155.438Z" fill="#DF7126"/>
<path d="M65.4375 155.438H59.75V161.125H65.4375V155.438Z" fill="#FF9E07"/>
<path d="M71.125 155.438H65.4375V161.125H71.125V155.438Z" fill="#934F25"/>
<path d="M76.8125 155.438H71.125V161.125H76.8125V155.438Z" fill="#934F25"/>
<path d="M82.5 155.438H76.8125V161.125H82.5V155.438Z" fill="#161522"/>
<path d="M88.1875 155.438H82.5V161.125H88.1875V155.438Z" fill="#161522"/>
<path d="M93.875 155.438H88.1875V161.125H93.875V155.438Z" fill="#BFBFBF"/>
<path d="M99.5625 155.438H93.875V161.125H99.5625V155.438Z" fill="#BFBFBF"/>
<path d="M105.25 155.438H99.5625V161.125H105.25V155.438Z" fill="#D5D5D5"/>
<path d="M110.938 155.438H105.25V161.125H110.938V155.438Z" fill="#D5D5D5"/>
<path d="M116.625 155.438H110.938V161.125H116.625V155.438Z" fill="#D5D5D5"/>
<path d="M122.312 155.438H116.625V161.125H122.312V155.438Z" fill="#D5D5D5"/>
<path d="M128 155.438H122.312V161.125H128V155.438Z" fill="#161522"/>
<path d="M133.688 155.438H128V161.125H133.688V155.438Z" fill="#BABABA"/>
<path d="M139.375 155.438H133.688V161.125H139.375V155.438Z" fill="#AAAAAA"/>
<path d="M145.062 155.438H139.375V161.125H145.062V155.438Z" fill="#AAAAAA"/>
<path d="M150.75 155.438H145.062V161.125H150.75V155.438Z" fill="#AAAAAA"/>
<path d="M156.438 155.438H150.75V161.125H156.438V155.438Z" fill="#AAAAAA"/>
<path d="M162.125 155.438H156.438V161.125H162.125V155.438Z" fill="#999999"/>
<path d="M167.812 155.438H162.125V161.125H167.812V155.438Z" fill="#999999"/>
<path d="M173.5 155.438H167.812V161.125H173.5V155.438Z" fill="#161522"/>
<path d="M179.188 155.438H173.5V161.125H179.188V155.438Z" fill="#161522"/>
<path d="M184.875 155.438H179.188V161.125H184.875V155.438Z" fill="#A76A11"/>
<path d="M190.562 155.438H184.875V161.125H190.562V155.438Z" fill="#A76A11"/>
<path d="M196.25 155.438H190.562V161.125H196.25V155.438Z" fill="#C87E0D"/>
<path d="M201.938 155.438H196.25V161.125H201.938V155.438Z" fill="#FF9E07"/>
<path d="M207.625 155.438H201.938V161.125H207.625V155.438Z" fill="#FF9E07"/>
<path d="M213.312 155.438H207.625V161.125H213.312V155.438Z" fill="#FF9E07"/>
<path d="M219 155.438H213.312V161.125H219V155.438Z" fill="#FFC907"/>
<path d="M42.6875 161.125H37V166.812H42.6875V161.125Z" fill="#DF7126"/>
<path d="M48.375 161.125H42.6875V166.812H48.375V161.125Z" fill="#DF7126"/>
<path d="M54.0625 161.125H48.375V166.812H54.0625V161.125Z" fill="#DF7126"/>
<path d="M59.75 161.125H54.0625V166.812H59.75V161.125Z" fill="#DF7126"/>
<path d="M65.4375 161.125H59.75V166.812H65.4375V161.125Z" fill="#DF7126"/>
<path d="M71.125 161.125H65.4375V166.812H71.125V161.125Z" fill="#DF7126"/>
<path d="M76.8125 161.125H71.125V166.812H76.8125V161.125Z" fill="#DF7126"/>
<path d="M82.5 161.125H76.8125V166.812H82.5V161.125Z" fill="#A76A11"/>
<path d="M88.1875 161.125H82.5V166.812H88.1875V161.125Z" fill="#934F25"/>
<path d="M93.875 161.125H88.1875V166.812H93.875V161.125Z" fill="#161522"/>
<path d="M99.5625 161.125H93.875V166.812H99.5625V161.125Z" fill="#161522"/>
<path d="M105.25 161.125H99.5625V166.812H105.25V161.125Z" fill="#BFBFBF"/>
<path d="M110.938 161.125H105.25V166.812H110.938V161.125Z" fill="#BFBFBF"/>
<path d="M116.625 161.125H110.938V166.812H116.625V161.125Z" fill="#D5D5D5"/>
<path d="M122.312 161.125H116.625V166.812H122.312V161.125Z" fill="#D5D5D5"/>
<path d="M128 161.125H122.312V166.812H128V161.125Z" fill="#161522"/>
<path d="M133.688 161.125H128V166.812H133.688V161.125Z" fill="#BABABA"/>
<path d="M139.375 161.125H133.688V166.812H139.375V161.125Z" fill="#AAAAAA"/>
<path d="M145.062 161.125H139.375V166.812H145.062V161.125Z" fill="#AAAAAA"/>
<path d="M150.75 161.125H145.062V166.812H150.75V161.125Z" fill="#999999"/>
<path d="M156.438 161.125H150.75V166.812H156.438V161.125Z" fill="#999999"/>
<path d="M162.125 161.125H156.438V166.812H162.125V161.125Z" fill="#161522"/>
<path d="M167.812 161.125H162.125V166.812H167.812V161.125Z" fill="#161522"/>
<path d="M173.5 161.125H167.812V166.812H173.5V161.125Z" fill="#A76A11"/>
<path d="M179.188 161.125H173.5V166.812H179.188V161.125Z" fill="#A76A11"/>
<path d="M184.875 161.125H179.188V166.812H184.875V161.125Z" fill="#C87E0D"/>
<path d="M190.562 161.125H184.875V166.812H190.562V161.125Z" fill="#FF9E07"/>
<path d="M196.25 161.125H190.562V166.812H196.25V161.125Z" fill="#FF9E07"/>
<path d="M201.938 161.125H196.25V166.812H201.938V161.125Z" fill="#FF9E07"/>
<path d="M207.625 161.125H201.938V166.812H207.625V161.125Z" fill="#FF9E07"/>
<path d="M213.312 161.125H207.625V166.812H213.312V161.125Z" fill="#FF9E07"/>
<path d="M219 161.125H213.312V166.812H219V161.125Z" fill="#FF9E07"/>
<path d="M42.6875 166.812H37V172.5H42.6875V166.812Z" fill="#DF7126"/>
<path d="M48.375 166.812H42.6875V172.5H48.375V166.812Z" fill="#DF7126"/>
<path d="M54.0625 166.812H48.375V172.5H54.0625V166.812Z" fill="#DF7126"/>
<path d="M59.75 166.812H54.0625V172.5H59.75V166.812Z" fill="#DF7126"/>
<path d="M65.4375 166.812H59.75V172.5H65.4375V166.812Z" fill="#DF7126"/>
<path d="M71.125 166.812H65.4375V172.5H71.125V166.812Z" fill="#DF7126"/>
<path d="M76.8125 166.812H71.125V172.5H76.8125V166.812Z" fill="#DF7126"/>
<path d="M82.5 166.812H76.8125V172.5H82.5V166.812Z" fill="#DF7126"/>
<path d="M88.1875 166.812H82.5V172.5H88.1875V166.812Z" fill="#DF7126"/>
<path d="M93.875 166.812H88.1875V172.5H93.875V166.812Z" fill="#934F25"/>
<path d="M99.5625 166.812H93.875V172.5H99.5625V166.812Z" fill="#934F25"/>
<path d="M105.25 166.812H99.5625V172.5H105.25V166.812Z" fill="#161522"/>
<path d="M110.938 166.812H105.25V172.5H110.938V166.812Z" fill="#161522"/>
<path d="M116.625 166.812H110.938V172.5H116.625V166.812Z" fill="#BFBFBF"/>
<path d="M122.312 166.812H116.625V172.5H122.312V166.812Z" fill="#BFBFBF"/>
<path d="M128 166.812H122.312V172.5H128V166.812Z" fill="#161522"/>
<path d="M133.688 166.812H128V172.5H133.688V166.812Z" fill="#BABABA"/>
<path d="M139.375 166.812H133.688V172.5H139.375V166.812Z" fill="#999999"/>
<path d="M145.062 166.812H139.375V172.5H145.062V166.812Z" fill="#999999"/>
<path d="M150.75 166.812H145.062V172.5H150.75V166.812Z" fill="#161522"/>
<path d="M156.438 166.812H150.75V172.5H156.438V166.812Z" fill="#161522"/>
<path d="M162.125 166.812H156.438V172.5H162.125V166.812Z" fill="#A76A11"/>
<path d="M167.812 166.812H162.125V172.5H167.812V166.812Z" fill="#A76A11"/>
<path d="M173.5 166.812H167.812V172.5H173.5V166.812Z" fill="#C87E0D"/>
<path d="M179.188 166.812H173.5V172.5H179.188V166.812Z" fill="#C87E0D"/>
<path d="M184.875 166.812H179.188V172.5H184.875V166.812Z" fill="#FF9E07"/>
<path d="M190.562 166.812H184.875V172.5H190.562V166.812Z" fill="#FF9E07"/>
<path d="M196.25 166.812H190.562V172.5H196.25V166.812Z" fill="#FF9E07"/>
<path d="M201.938 166.812H196.25V172.5H201.938V166.812Z" fill="#FF9E07"/>
<path d="M207.625 166.812H201.938V172.5H207.625V166.812Z" fill="#FF9E07"/>
<path d="M213.312 166.812H207.625V172.5H213.312V166.812Z" fill="#FF9E07"/>
<path d="M219 166.812H213.312V172.5H219V166.812Z" fill="#FF9E07"/>
<path d="M42.6875 172.5H37V178.188H42.6875V172.5Z" fill="#DF7126"/>
<path d="M48.375 172.5H42.6875V178.188H48.375V172.5Z" fill="#DF7126"/>
<path d="M54.0625 172.5H48.375V178.188H54.0625V172.5Z" fill="#DF7126"/>
<path d="M59.75 172.5H54.0625V178.188H59.75V172.5Z" fill="#DF7126"/>
<path d="M65.4375 172.5H59.75V178.188H65.4375V172.5Z" fill="#DF7126"/>
<path d="M71.125 172.5H65.4375V178.188H71.125V172.5Z" fill="#DF7126"/>
<path d="M76.8125 172.5H71.125V178.188H76.8125V172.5Z" fill="#DF7126"/>
<path d="M82.5 172.5H76.8125V178.188H82.5V172.5Z" fill="#DF7126"/>
<path d="M88.1875 172.5H82.5V178.188H88.1875V172.5Z" fill="#DF7126"/>
<path d="M93.875 172.5H88.1875V178.188H93.875V172.5Z" fill="#DF7126"/>
<path d="M99.5625 172.5H93.875V178.188H99.5625V172.5Z" fill="#DF7126"/>
<path d="M105.25 172.5H99.5625V178.188H105.25V172.5Z" fill="#934F25"/>
<path d="M110.938 172.5H105.25V178.188H110.938V172.5Z" fill="#934F25"/>
<path d="M116.625 172.5H110.938V178.188H116.625V172.5Z" fill="#161522"/>
<path d="M122.312 172.5H116.625V178.188H122.312V172.5Z" fill="#161522"/>
<path d="M128 172.5H122.312V178.188H128V172.5Z" fill="#161522"/>
<path d="M133.688 172.5H128V178.188H133.688V172.5Z" fill="#B0B0B0"/>
<path d="M139.375 172.5H133.688V178.188H139.375V172.5Z" fill="#161522"/>
<path d="M145.062 172.5H139.375V178.188H145.062V172.5Z" fill="#161522"/>
<path d="M150.75 172.5H145.062V178.188H150.75V172.5Z" fill="#A76A11"/>
<path d="M156.438 172.5H150.75V178.188H156.438V172.5Z" fill="#A76A11"/>
<path d="M162.125 172.5H156.438V178.188H162.125V172.5Z" fill="#C87E0D"/>
<path d="M167.812 172.5H162.125V178.188H167.812V172.5Z" fill="#C87E0D"/>
<path d="M173.5 172.5H167.812V178.188H173.5V172.5Z" fill="#FF9E07"/>
<path d="M179.188 172.5H173.5V178.188H179.188V172.5Z" fill="#FF9E07"/>
<path d="M184.875 172.5H179.188V178.188H184.875V172.5Z" fill="#FF9E07"/>
<path d="M190.562 172.5H184.875V178.188H190.562V172.5Z" fill="#FF9E07"/>
<path d="M196.25 172.5H190.562V178.188H196.25V172.5Z" fill="#FF9E07"/>
<path d="M201.938 172.5H196.25V178.188H201.938V172.5Z" fill="#FF9E07"/>
<path d="M207.625 172.5H201.938V178.188H207.625V172.5Z" fill="#FF9E07"/>
<path d="M213.312 172.5H207.625V178.188H213.312V172.5Z" fill="#FF9E07"/>
<path d="M219 172.5H213.312V178.188H219V172.5Z" fill="#FF9E07"/>
<path d="M42.6875 178.188H37V183.875H42.6875V178.188Z" fill="#DF7126"/>
<path d="M48.375 178.188H42.6875V183.875H48.375V178.188Z" fill="#DF7126"/>
<path d="M54.0625 178.188H48.375V183.875H54.0625V178.188Z" fill="#DF7126"/>
<path d="M59.75 178.188H54.0625V183.875H59.75V178.188Z" fill="#DF7126"/>
<path d="M65.4375 178.188H59.75V183.875H65.4375V178.188Z" fill="#DF7126"/>
<path d="M71.125 178.188H65.4375V183.875H71.125V178.188Z" fill="#DF7126"/>
<path d="M76.8125 178.188H71.125V183.875H76.8125V178.188Z" fill="#DF7126"/>
<path d="M82.5 178.188H76.8125V183.875H82.5V178.188Z" fill="#DF7126"/>
<path d="M88.1875 178.188H82.5V183.875H88.1875V178.188Z" fill="#DF7126"/>
<path d="M93.875 178.188H88.1875V183.875H93.875V178.188Z" fill="#DF7126"/>
<path d="M99.5625 178.188H93.875V183.875H99.5625V178.188Z" fill="#DF7126"/>
<path d="M105.25 178.188H99.5625V183.875H105.25V178.188Z" fill="#FF9E07"/>
<path d="M110.938 178.188H105.25V183.875H110.938V178.188Z" fill="#DF7126"/>
<path d="M116.625 178.188H110.938V183.875H116.625V178.188Z" fill="#934F25"/>
<path d="M122.312 178.188H116.625V183.875H122.312V178.188Z" fill="#934F25"/>
<path d="M128 178.188H122.312V183.875H128V178.188Z" fill="#161522"/>
<path d="M133.688 178.188H128V183.875H133.688V178.188Z" fill="#161522"/>
<path d="M139.375 178.188H133.688V183.875H139.375V178.188Z" fill="#934F25"/>
<path d="M145.062 178.188H139.375V183.875H145.062V178.188Z" fill="#934F25"/>
<path d="M150.75 178.188H145.062V183.875H150.75V178.188Z" fill="#C87E0D"/>
<path d="M156.438 178.188H150.75V183.875H156.438V178.188Z" fill="#AF5B26"/>
<path d="M162.125 178.188H156.438V183.875H162.125V178.188Z" fill="#FF9E07"/>
<path d="M167.812 178.188H162.125V183.875H167.812V178.188Z" fill="#FF9E07"/>
<path d="M173.5 178.188H167.812V183.875H173.5V178.188Z" fill="#FF9E07"/>
<path d="M179.188 178.188H173.5V183.875H179.188V178.188Z" fill="#FF9E07"/>
<path d="M184.875 178.188H179.188V183.875H184.875V178.188Z" fill="#FF9E07"/>
<path d="M190.562 178.188H184.875V183.875H190.562V178.188Z" fill="#FF9E07"/>
<path d="M196.25 178.188H190.562V183.875H196.25V178.188Z" fill="#FF9E07"/>
<path d="M201.938 178.188H196.25V183.875H201.938V178.188Z" fill="#FF9E07"/>
<path d="M207.625 178.188H201.938V183.875H207.625V178.188Z" fill="#FF9E07"/>
<path d="M213.312 178.188H207.625V183.875H213.312V178.188Z" fill="#FF9E07"/>
<path d="M219 178.188H213.312V183.875H219V178.188Z" fill="#FF9E07"/>
<path d="M42.6875 183.875H37V189.562H42.6875V183.875Z" fill="#DF7126"/>
<path d="M48.375 183.875H42.6875V189.562H48.375V183.875Z" fill="#DF7126"/>
<path d="M54.0625 183.875H48.375V189.562H54.0625V183.875Z" fill="#DF7126"/>
<path d="M59.75 183.875H54.0625V189.562H59.75V183.875Z" fill="#DF7126"/>
<path d="M65.4375 183.875H59.75V189.562H65.4375V183.875Z" fill="#DF7126"/>
<path d="M71.125 183.875H65.4375V189.562H71.125V183.875Z" fill="#DF7126"/>
<path d="M76.8125 183.875H71.125V189.562H76.8125V183.875Z" fill="#DF7126"/>
<path d="M82.5 183.875H76.8125V189.562H82.5V183.875Z" fill="#DF7126"/>
<path d="M88.1875 183.875H82.5V189.562H88.1875V183.875Z" fill="#DF7126"/>
<path d="M93.875 183.875H88.1875V189.562H93.875V183.875Z" fill="#DF7126"/>
<path d="M99.5625 183.875H93.875V189.562H99.5625V183.875Z" fill="#DF7126"/>
<path d="M105.25 183.875H99.5625V189.562H105.25V183.875Z" fill="#DF7126"/>
<path d="M110.938 183.875H105.25V189.562H110.938V183.875Z" fill="#DF7126"/>
<path d="M116.625 183.875H110.938V189.562H116.625V183.875Z" fill="#DF7126"/>
<path d="M122.312 183.875H116.625V189.562H122.312V183.875Z" fill="#AF5B26"/>
<path d="M128 183.875H122.312V189.562H128V183.875Z" fill="#934F25"/>
<path d="M133.688 183.875H128V189.562H133.688V183.875Z" fill="#934F25"/>
<path d="M139.375 183.875H133.688V189.562H139.375V183.875Z" fill="#AF5B26"/>
<path d="M145.062 183.875H139.375V189.562H145.062V183.875Z" fill="#AF5B26"/>
<path d="M150.75 183.875H145.062V189.562H150.75V183.875Z" fill="#FF9E07"/>
<path d="M156.438 183.875H150.75V189.562H156.438V183.875Z" fill="#FF9E07"/>
<path d="M162.125 183.875H156.438V189.562H162.125V183.875Z" fill="#FF9E07"/>
<path d="M167.812 183.875H162.125V189.562H167.812V183.875Z" fill="#FF9E07"/>
<path d="M173.5 183.875H167.812V189.562H173.5V183.875Z" fill="#FF9E07"/>
<path d="M179.188 183.875H173.5V189.562H179.188V183.875Z" fill="#FF9E07"/>
<path d="M184.875 183.875H179.188V189.562H184.875V183.875Z" fill="#FF9E07"/>
<path d="M190.562 183.875H184.875V189.562H190.562V183.875Z" fill="#FF9E07"/>
<path d="M196.25 183.875H190.562V189.562H196.25V183.875Z" fill="#FF9E07"/>
<path d="M201.938 183.875H196.25V189.562H201.938V183.875Z" fill="#FF9E07"/>
<path d="M207.625 183.875H201.938V189.562H207.625V183.875Z" fill="#FF9E07"/>
<path d="M213.312 183.875H207.625V189.562H213.312V183.875Z" fill="#FF9E07"/>
<path d="M219 183.875H213.312V189.562H219V183.875Z" fill="#FF9E07"/>
<path d="M42.6875 189.562H37V195.25H42.6875V189.562Z" fill="#DF7126"/>
<path d="M48.375 189.562H42.6875V195.25H48.375V189.562Z" fill="#DF7126"/>
<path d="M54.0625 189.562H48.375V195.25H54.0625V189.562Z" fill="#DF7126"/>
<path d="M59.75 189.562H54.0625V195.25H59.75V189.562Z" fill="#DF7126"/>
<path d="M65.4375 189.562H59.75V195.25H65.4375V189.562Z" fill="#DF7126"/>
<path d="M71.125 189.562H65.4375V195.25H71.125V189.562Z" fill="#DF7126"/>
<path d="M76.8125 189.562H71.125V195.25H76.8125V189.562Z" fill="#DF7126"/>
<path d="M82.5 189.562H76.8125V195.25H82.5V189.562Z" fill="#DF7126"/>
<path d="M88.1875 189.562H82.5V195.25H88.1875V189.562Z" fill="#DF7126"/>
<path d="M93.875 189.562H88.1875V195.25H93.875V189.562Z" fill="#DF7126"/>
<path d="M99.5625 189.562H93.875V195.25H99.5625V189.562Z" fill="#DF7126"/>
<path d="M105.25 189.562H99.5625V195.25H105.25V189.562Z" fill="#DF7126"/>
<path d="M110.938 189.562H105.25V195.25H110.938V189.562Z" fill="#DF7126"/>
<path d="M116.625 189.562H110.938V195.25H116.625V189.562Z" fill="#DF7126"/>
<path d="M122.312 189.562H116.625V195.25H122.312V189.562Z" fill="#DF7126"/>
<path d="M128 189.562H122.312V195.25H128V189.562Z" fill="#C87E0D"/>
<path d="M133.688 189.562H128V195.25H133.688V189.562Z" fill="#FF9E07"/>
<path d="M139.375 189.562H133.688V195.25H139.375V189.562Z" fill="#FF9E07"/>
<path d="M145.062 189.562H139.375V195.25H145.062V189.562Z" fill="#DF7126"/>
<path d="M150.75 189.562H145.062V195.25H150.75V189.562Z" fill="#FF9E07"/>
<path d="M156.438 189.562H150.75V195.25H156.438V189.562Z" fill="#DF7126"/>
<path d="M162.125 189.562H156.438V195.25H162.125V189.562Z" fill="#FF9E07"/>
<path d="M167.812 189.562H162.125V195.25H167.812V189.562Z" fill="#FF9E07"/>
<path d="M173.5 189.562H167.812V195.25H173.5V189.562Z" fill="#FF9E07"/>
<path d="M179.188 189.562H173.5V195.25H179.188V189.562Z" fill="#FF9E07"/>
<path d="M184.875 189.562H179.188V195.25H184.875V189.562Z" fill="#FF9E07"/>
<path d="M190.562 189.562H184.875V195.25H190.562V189.562Z" fill="#FF9E07"/>
<path d="M196.25 189.562H190.562V195.25H196.25V189.562Z" fill="#FF9E07"/>
<path d="M201.938 189.562H196.25V195.25H201.938V189.562Z" fill="#FF9E07"/>
<path d="M207.625 189.562H201.938V195.25H207.625V189.562Z" fill="#FF9E07"/>
<path d="M213.312 189.562H207.625V195.25H213.312V189.562Z" fill="#FF9E07"/>
<path d="M219 189.562H213.312V195.25H219V189.562Z" fill="#FF9E07"/>
<path d="M42.6875 195.25H37V200.938H42.6875V195.25Z" fill="#DF7126"/>
<path d="M48.375 195.25H42.6875V200.938H48.375V195.25Z" fill="#DF7126"/>
<path d="M54.0625 195.25H48.375V200.938H54.0625V195.25Z" fill="#DF7126"/>
<path d="M59.75 195.25H54.0625V200.938H59.75V195.25Z" fill="#DF7126"/>
<path d="M65.4375 195.25H59.75V200.938H65.4375V195.25Z" fill="#DF7126"/>
<path d="M71.125 195.25H65.4375V200.938H71.125V195.25Z" fill="#DF7126"/>
<path d="M76.8125 195.25H71.125V200.938H76.8125V195.25Z" fill="#DF7126"/>
<path d="M82.5 195.25H76.8125V200.938H82.5V195.25Z" fill="#DF7126"/>
<path d="M88.1875 195.25H82.5V200.938H88.1875V195.25Z" fill="#DF7126"/>
<path d="M93.875 195.25H88.1875V200.938H93.875V195.25Z" fill="#DF7126"/>
<path d="M99.5625 195.25H93.875V200.938H99.5625V195.25Z" fill="#DF7126"/>
<path d="M105.25 195.25H99.5625V200.938H105.25V195.25Z" fill="#DF7126"/>
<path d="M110.938 195.25H105.25V200.938H110.938V195.25Z" fill="#DF7126"/>
<path d="M116.625 195.25H110.938V200.938H116.625V195.25Z" fill="#DF7126"/>
<path d="M122.312 195.25H116.625V200.938H122.312V195.25Z" fill="#DF7126"/>
<path d="M128 195.25H122.312V200.938H128V195.25Z" fill="#FF9E07"/>
<path d="M133.688 195.25H128V200.938H133.688V195.25Z" fill="#DF7126"/>
<path d="M139.375 195.25H133.688V200.938H139.375V195.25Z" fill="#DF7126"/>
<path d="M145.062 195.25H139.375V200.938H145.062V195.25Z" fill="#DF7126"/>
<path d="M150.75 195.25H145.062V200.938H150.75V195.25Z" fill="#DF7126"/>
<path d="M156.438 195.25H150.75V200.938H156.438V195.25Z" fill="#FF9E07"/>
<path d="M162.125 195.25H156.438V200.938H162.125V195.25Z" fill="#FF9E07"/>
<path d="M167.812 195.25H162.125V200.938H167.812V195.25Z" fill="#DF7126"/>
<path d="M173.5 195.25H167.812V200.938H173.5V195.25Z" fill="#FF9E07"/>
<path d="M179.188 195.25H173.5V200.938H179.188V195.25Z" fill="#FF9E07"/>
<path d="M184.875 195.25H179.188V200.938H184.875V195.25Z" fill="#FF9E07"/>
<path d="M190.562 195.25H184.875V200.938H190.562V195.25Z" fill="#FF9E07"/>
<path d="M196.25 195.25H190.562V200.938H196.25V195.25Z" fill="#FF9E07"/>
<path d="M201.938 195.25H196.25V200.938H201.938V195.25Z" fill="#FF9E07"/>
<path d="M207.625 195.25H201.938V200.938H207.625V195.25Z" fill="#FF9E07"/>
<path d="M213.312 195.25H207.625V200.938H213.312V195.25Z" fill="#FF9E07"/>
<path d="M219 195.25H213.312V200.938H219V195.25Z" fill="#FF9E07"/>
<path d="M42.6875 200.938H37V206.625H42.6875V200.938Z" fill="#DF7126"/>
<path d="M48.375 200.938H42.6875V206.625H48.375V200.938Z" fill="#DF7126"/>
<path d="M54.0625 200.938H48.375V206.625H54.0625V200.938Z" fill="#DF7126"/>
<path d="M59.75 200.938H54.0625V206.625H59.75V200.938Z" fill="#DF7126"/>
<path d="M65.4375 200.938H59.75V206.625H65.4375V200.938Z" fill="#DF7126"/>
<path d="M71.125 200.938H65.4375V206.625H71.125V200.938Z" fill="#DF7126"/>
<path d="M76.8125 200.938H71.125V206.625H76.8125V200.938Z" fill="#DF7126"/>
<path d="M82.5 200.938H76.8125V206.625H82.5V200.938Z" fill="#DF7126"/>
<path d="M88.1875 200.938H82.5V206.625H88.1875V200.938Z" fill="#DF7126"/>
<path d="M93.875 200.938H88.1875V206.625H93.875V200.938Z" fill="#DF7126"/>
<path d="M99.5625 200.938H93.875V206.625H99.5625V200.938Z" fill="#DF7126"/>
<path d="M105.25 200.938H99.5625V206.625H105.25V200.938Z" fill="#DF7126"/>
<path d="M110.938 200.938H105.25V206.625H110.938V200.938Z" fill="#DF7126"/>
<path d="M116.625 200.938H110.938V206.625H116.625V200.938Z" fill="#DF7126"/>
<path d="M122.312 200.938H116.625V206.625H122.312V200.938Z" fill="#DF7126"/>
<path d="M128 200.938H122.312V206.625H128V200.938Z" fill="#DF7126"/>
<path d="M133.688 200.938H128V206.625H133.688V200.938Z" fill="#DF7126"/>
<path d="M139.375 200.938H133.688V206.625H139.375V200.938Z" fill="#DF7126"/>
<path d="M145.062 200.938H139.375V206.625H145.062V200.938Z" fill="#DF7126"/>
<path d="M150.75 200.938H145.062V206.625H150.75V200.938Z" fill="#FF9E07"/>
<path d="M156.438 200.938H150.75V206.625H156.438V200.938Z" fill="#DF7126"/>
<path d="M162.125 200.938H156.438V206.625H162.125V200.938Z" fill="#FF9E07"/>
<path d="M167.812 200.938H162.125V206.625H167.812V200.938Z" fill="#DF7126"/>
<path d="M173.5 200.938H167.812V206.625H173.5V200.938Z" fill="#FF9E07"/>
<path d="M179.188 200.938H173.5V206.625H179.188V200.938Z" fill="#FF9E07"/>
<path d="M184.875 200.938H179.188V206.625H184.875V200.938Z" fill="#FF9E07"/>
<path d="M190.562 200.938H184.875V206.625H190.562V200.938Z" fill="#FF9E07"/>
<path d="M196.25 200.938H190.562V206.625H196.25V200.938Z" fill="#FF9E07"/>
<path d="M201.938 200.938H196.25V206.625H201.938V200.938Z" fill="#FF9E07"/>
<path d="M207.625 200.938H201.938V206.625H207.625V200.938Z" fill="#FF9E07"/>
<path d="M213.312 200.938H207.625V206.625H213.312V200.938Z" fill="#FF9E07"/>
<path d="M219 200.938H213.312V206.625H219V200.938Z" fill="#FF9E07"/>
<path d="M42.6875 206.625H37V212.312H42.6875V206.625Z" fill="#DF7126"/>
<path d="M48.375 206.625H42.6875V212.312H48.375V206.625Z" fill="#DF7126"/>
<path d="M54.0625 206.625H48.375V212.312H54.0625V206.625Z" fill="#DF7126"/>
<path d="M59.75 206.625H54.0625V212.312H59.75V206.625Z" fill="#DF7126"/>
<path d="M65.4375 206.625H59.75V212.312H65.4375V206.625Z" fill="#DF7126"/>
<path d="M71.125 206.625H65.4375V212.312H71.125V206.625Z" fill="#DF7126"/>
<path d="M76.8125 206.625H71.125V212.312H76.8125V206.625Z" fill="#DF7126"/>
<path d="M82.5 206.625H76.8125V212.312H82.5V206.625Z" fill="#DF7126"/>
<path d="M88.1875 206.625H82.5V212.312H88.1875V206.625Z" fill="#DF7126"/>
<path d="M93.875 206.625H88.1875V212.312H93.875V206.625Z" fill="#DF7126"/>
<path d="M99.5625 206.625H93.875V212.312H99.5625V206.625Z" fill="#DF7126"/>
<path d="M105.25 206.625H99.5625V212.312H105.25V206.625Z" fill="#DF7126"/>
<path d="M110.938 206.625H105.25V212.312H110.938V206.625Z" fill="#DF7126"/>
<path d="M116.625 206.625H110.938V212.312H116.625V206.625Z" fill="#DF7126"/>
<path d="M122.312 206.625H116.625V212.312H122.312V206.625Z" fill="#DF7126"/>
<path d="M128 206.625H122.312V212.312H128V206.625Z" fill="#DF7126"/>
<path d="M133.688 206.625H128V212.312H133.688V206.625Z" fill="#DF7126"/>
<path d="M139.375 206.625H133.688V212.312H139.375V206.625Z" fill="#DF7126"/>
<path d="M145.062 206.625H139.375V212.312H145.062V206.625Z" fill="#DF7126"/>
<path d="M150.75 206.625H145.062V212.312H150.75V206.625Z" fill="#DF7126"/>
<path d="M156.438 206.625H150.75V212.312H156.438V206.625Z" fill="#FF9E07"/>
<path d="M162.125 206.625H156.438V212.312H162.125V206.625Z" fill="#FF9E07"/>
<path d="M167.812 206.625H162.125V212.312H167.812V206.625Z" fill="#FF9E07"/>
<path d="M173.5 206.625H167.812V212.312H173.5V206.625Z" fill="#DF7126"/>
<path d="M179.188 206.625H173.5V212.312H179.188V206.625Z" fill="#DF7126"/>
<path d="M184.875 206.625H179.188V212.312H184.875V206.625Z" fill="#FF9E07"/>
<path d="M190.562 206.625H184.875V212.312H190.562V206.625Z" fill="#FF9E07"/>
<path d="M196.25 206.625H190.562V212.312H196.25V206.625Z" fill="#FF9E07"/>
<path d="M201.938 206.625H196.25V212.312H201.938V206.625Z" fill="#FF9E07"/>
<path d="M207.625 206.625H201.938V212.312H207.625V206.625Z" fill="#FF9E07"/>
<path d="M213.312 206.625H207.625V212.312H213.312V206.625Z" fill="#FF9E07"/>
<path d="M219 206.625H213.312V212.312H219V206.625Z" fill="#FF9E07"/>
<path d="M42.6875 212.312H37V218H42.6875V212.312Z" fill="#DF7126"/>
<path d="M48.375 212.312H42.6875V218H48.375V212.312Z" fill="#DF7126"/>
<path d="M54.0625 212.312H48.375V218H54.0625V212.312Z" fill="#DF7126"/>
<path d="M59.75 212.312H54.0625V218H59.75V212.312Z" fill="#DF7126"/>
<path d="M65.4375 212.312H59.75V218H65.4375V212.312Z" fill="#DF7126"/>
<path d="M71.125 212.312H65.4375V218H71.125V212.312Z" fill="#DF7126"/>
<path d="M76.8125 212.312H71.125V218H76.8125V212.312Z" fill="#DF7126"/>
<path d="M82.5 212.312H76.8125V218H82.5V212.312Z" fill="#DF7126"/>
<path d="M88.1875 212.312H82.5V218H88.1875V212.312Z" fill="#DF7126"/>
<path d="M93.875 212.312H88.1875V218H93.875V212.312Z" fill="#DF7126"/>
<path d="M99.5625 212.312H93.875V218H99.5625V212.312Z" fill="#DF7126"/>
<path d="M105.25 212.312H99.5625V218H105.25V212.312Z" fill="#DF7126"/>
<path d="M110.938 212.312H105.25V218H110.938V212.312Z" fill="#DF7126"/>
<path d="M116.625 212.312H110.938V218H116.625V212.312Z" fill="#DF7126"/>
<path d="M122.312 212.312H116.625V218H122.312V212.312Z" fill="#DF7126"/>
<path d="M128 212.312H122.312V218H128V212.312Z" fill="#DF7126"/>
<path d="M133.688 212.312H128V218H133.688V212.312Z" fill="#DF7126"/>
<path d="M139.375 212.312H133.688V218H139.375V212.312Z" fill="#DF7126"/>
<path d="M145.062 212.312H139.375V218H145.062V212.312Z" fill="#FF9E07"/>
<path d="M150.75 212.312H145.062V218H150.75V212.312Z" fill="#DF7126"/>
<path d="M156.438 212.312H150.75V218H156.438V212.312Z" fill="#DF7126"/>
<path d="M162.125 212.312H156.438V218H162.125V212.312Z" fill="#DF7126"/>
<path d="M167.812 212.312H162.125V218H167.812V212.312Z" fill="#FF9E07"/>
<path d="M173.5 212.312H167.812V218H173.5V212.312Z" fill="#DF7126"/>
<path d="M179.188 212.312H173.5V218H179.188V212.312Z" fill="#DF7126"/>
<path d="M184.875 212.312H179.188V218H184.875V212.312Z" fill="#FF9E07"/>
<path d="M190.562 212.312H184.875V218H190.562V212.312Z" fill="#FF9E07"/>
<path d="M196.25 212.312H190.562V218H196.25V212.312Z" fill="#FF9E07"/>
<path d="M201.938 212.312H196.25V218H201.938V212.312Z" fill="#FF9E07"/>
<path d="M207.625 212.312H201.938V218H207.625V212.312Z" fill="#FF9E07"/>
<path d="M213.312 212.312H207.625V218H213.312V212.312Z" fill="#FF9E07"/>
<path d="M219 212.312H213.312V218H219V212.312Z" fill="#FF9E07"/>
<g filter="url(#filter1_d_23_50183)">
<path d="M31.127 166.141L31 138.197L31.001 116.824L31 89.4355L31.0049 88.5576C31.0147 87.652 31.0373 86.6673 31.0625 85.6367C31.0789 84.9658 31.097 84.2725 31.1113 83.5869L31.1406 81.5811V81.5801C31.153 79.5509 31.1766 77.5483 31.2305 75.5586C31.3495 71.1934 31.6046 67.0471 32.3223 63.0811C32.9972 59.3524 34.0531 55.9564 35.6543 52.6768L35.9824 52.0225C37.6345 48.8012 39.7625 45.8323 42.2891 43.2236L42.7998 42.707C45.5513 39.9755 48.7266 37.6851 52.1963 35.9316L52.1953 35.9307C55.4904 34.2655 58.8897 33.1533 62.6094 32.4307L63.3574 32.291H63.3584C66.8637 31.6654 70.5067 31.3933 74.3105 31.2559L75.9512 31.2041C76.9537 31.1772 77.9598 31.1586 78.9707 31.1445L82.0215 31.1152C84.4508 31.1004 86.8821 31.1016 89.3398 31.1016H89.3623L117.271 31H138.478L166.89 31.1016H166.911C168.138 31.1016 169.358 31.101 170.574 31.1025L174.215 31.1152C175.747 31.1247 177.263 31.1391 178.77 31.1689L180.273 31.2041C184.389 31.3148 188.316 31.5446 192.083 32.1611L192.834 32.29C196.591 32.9613 200.012 34.0118 203.316 35.6045L203.976 35.9297C207.22 37.5726 210.206 39.6882 212.829 42.1963L213.349 42.7031H213.35C215.924 45.2628 218.106 48.1899 219.818 51.3779L220.154 52.0195C221.825 55.2842 222.941 58.6498 223.666 62.333L223.806 63.0732V63.0742C224.433 66.5465 224.707 70.1564 224.845 73.9297L224.896 75.5576V75.5586C224.924 76.553 224.943 77.5508 224.957 78.5537L224.986 81.5801V81.5811C225.001 83.9925 225 86.4065 225 88.8457V93.1621C225 95.7545 224.999 99.2148 224.999 102.687C224.999 109.629 224.998 116.617 224.998 116.802V138.197C224.998 138.444 224.999 145.437 224.999 152.368C224.999 155.834 225 159.284 225 161.867V166.168L224.999 169.816L224.986 173.441V173.443C224.977 174.968 224.962 176.478 224.932 177.978L224.896 179.475C224.785 183.572 224.555 187.479 223.936 191.226L223.807 191.973C223.088 195.958 221.936 199.563 220.152 203.052C218.502 206.279 216.377 209.252 213.855 211.864L213.347 212.382L213.346 212.383C210.772 214.947 207.827 217.122 204.617 218.83L203.972 219.165C200.685 220.832 197.294 221.946 193.584 222.669L192.838 222.809C189.341 223.435 185.706 223.707 181.91 223.845L180.273 223.896C179.273 223.922 178.269 223.942 177.26 223.956L174.216 223.985H174.215C173.003 223.993 171.79 223.997 170.574 223.998L166.911 223.999L138.804 224H117.502L89.3408 223.999H89.3398C88.1114 223.999 86.8894 224 85.6709 223.998L82.0215 223.985C80.4868 223.976 78.9677 223.961 77.458 223.931L75.9512 223.896L74.3115 223.845C70.7808 223.717 67.3888 223.473 64.1172 222.938L63.3643 222.809C59.5988 222.136 56.1692 221.084 52.8574 219.488L52.1973 219.162C48.7287 217.406 45.5544 215.113 42.8027 212.378C40.2229 209.813 38.0353 206.882 36.3193 203.688L35.9824 203.047C34.3084 199.778 33.1903 196.407 32.4639 192.718L32.3242 191.976C31.6954 188.498 31.4205 184.882 31.2822 181.104L31.2305 179.475C31.2034 178.478 31.1841 177.478 31.1699 176.474L31.1406 173.443C31.126 171.028 31.127 168.611 31.127 166.168V166.141Z" stroke="white" stroke-width="12" shape-rendering="crispEdges"/>
</g>
</g>
</g>
<defs>
<filter id="filter0_d_23_50183" x="22.7" y="23.7" width="212.6" height="211.6" filterUnits="userSpaceOnUse" color-interpolation-filters="sRGB">
<feFlood flood-opacity="0" result="BackgroundImageFix"/>
<feColorMatrix in="SourceAlpha" type="matrix" values="0 0 0 0 0 0 0 0 0 0 0 0 0 0 0 0 0 0 127 0" result="hardAlpha"/>
<feOffset dx="1" dy="2"/>
<feGaussianBlur stdDeviation="1.65"/>
<feComposite in2="hardAlpha" operator="out"/>
<feColorMatrix type="matrix" values="0 0 0 0 0 0 0 0 0 0 0 0 0 0 0 0 0 0 0.25 0"/>
<feBlend mode="normal" in2="BackgroundImageFix" result="effect1_dropShadow_23_50183"/>
<feBlend mode="normal" in="SourceGraphic" in2="effect1_dropShadow_23_50183" result="shape"/>
</filter>
<filter id="filter1_d_23_50183" x="18.2" y="18.2" width="219.6" height="218.6" filterUnits="userSpaceOnUse" color-interpolation-filters="sRGB">
<feFlood flood-opacity="0" result="BackgroundImageFix"/>
<feColorMatrix in="SourceAlpha" type="matrix" values="0 0 0 0 0 0 0 0 0 0 0 0 0 0 0 0 0 0 127 0" result="hardAlpha"/>
<feOffset/>
<feGaussianBlur stdDeviation="3.4"/>
<feComposite in2="hardAlpha" operator="out"/>
<feColorMatrix type="matrix" values="0 0 0 0 0 0 0 0 0 0 0 0 0 0 0 0 0 0 0.25 0"/>
<feBlend mode="normal" in2="BackgroundImageFix" result="effect1_dropShadow_23_50183"/>
<feBlend mode="normal" in="SourceGraphic" in2="effect1_dropShadow_23_50183" result="shape"/>
</filter>
</defs>
</svg>
