<svg width="82" height="76" viewBox="0 0 82 76" fill="none" xmlns="http://www.w3.org/2000/svg">
<g opacity="0.380392">
<path d="M82 43.0899H78.4379V46.652H82V43.0899Z" fill="#161522"/>
<path d="M82 46.652H78.4379V50.2141H82V46.652Z" fill="#161522"/>
<path d="M3.63376 50.2141H0.0716553V53.7762H3.63376V50.2141Z" fill="#161522"/>
<path d="M7.19586 50.2141H3.63376V53.7762H7.19586V50.2141Z" fill="#161522"/>
<path d="M74.8758 50.2141H71.3137V53.7762H74.8758V50.2141Z" fill="#161522"/>
<path d="M78.4379 50.2141H74.8758V53.7762H78.4379V50.2141Z" fill="#161522"/>
<path d="M10.758 53.7762H7.19586V57.3383H10.758V53.7762Z" fill="#161522"/>
<path d="M14.3201 53.7762H10.758V57.3383H14.3201V53.7762Z" fill="#161522"/>
<path d="M67.7516 53.7762H64.1895V57.3383H67.7516V53.7762Z" fill="#161522"/>
<path d="M71.3137 53.7762H67.7516V57.3383H71.3137V53.7762Z" fill="#161522"/>
<path d="M17.8822 57.3383H14.3201V60.9004H17.8822V57.3383Z" fill="#161522"/>
<path d="M21.4443 57.3383H17.8822V60.9004H21.4443V57.3383Z" fill="#161522"/>
<path d="M60.6274 57.3383H57.0653V60.9004H60.6274V57.3383Z" fill="#161522"/>
<path d="M64.1895 57.3383H60.6274V60.9004H64.1895V57.3383Z" fill="#161522"/>
<path d="M25.0064 60.9004H21.4443V64.4625H25.0064V60.9004Z" fill="#161522"/>
<path d="M28.5685 60.9004H25.0064V64.4625H28.5685V60.9004Z" fill="#161522"/>
<path d="M53.5032 60.9004H49.9411V64.4625H53.5032V60.9004Z" fill="#161522"/>
<path d="M57.0653 60.9004H53.5032V64.4625H57.0653V60.9004Z" fill="#161522"/>
<path d="M32.1306 64.4625H28.5685V68.0246H32.1306V64.4625Z" fill="#161522"/>
<path d="M35.6927 64.4625H32.1306V68.0246H35.6927V64.4625Z" fill="#161522"/>
<path d="M46.379 64.4625H42.8169V68.0246H46.379V64.4625Z" fill="#161522"/>
<path d="M49.9411 64.4625H46.379V68.0246H49.9411V64.4625Z" fill="#161522"/>
<path d="M39.2548 68.0246H35.6927V71.5867H39.2548V68.0246Z" fill="#161522"/>
<path d="M42.8169 68.0246H39.2548V71.5867H42.8169V68.0246Z" fill="#161522"/>
</g>
<g opacity="0.239216">
<path d="M82 39.5497H78.4379V43.1118H82V39.5497Z" fill="#161522"/>
<path d="M82 50.236H78.4379V53.7982H82V50.236Z" fill="#161522"/>
<path d="M74.8758 53.7982H71.3137V57.3603H74.8758V53.7982Z" fill="#161522"/>
<path d="M67.7516 57.3603H64.1895V60.9224H67.7516V57.3603Z" fill="#161522"/>
<path d="M71.3137 57.3603H67.7516V60.9224H71.3137V57.3603Z" fill="#161522"/>
<path d="M60.6274 60.9224H57.0653V64.4845H60.6274V60.9224Z" fill="#161522"/>
<path d="M64.1895 60.9224H60.6274V64.4845H64.1895V60.9224Z" fill="#161522"/>
<path d="M53.5032 64.4845H49.9411V68.0466H53.5032V64.4845Z" fill="#161522"/>
<path d="M57.0653 64.4845H53.5032V68.0466H57.0653V64.4845Z" fill="#161522"/>
<path d="M35.6927 68.0466H32.1306V71.6087H35.6927V68.0466Z" fill="#161522"/>
<path d="M46.379 68.0466H42.8169V71.6087H46.379V68.0466Z" fill="#161522"/>
<path d="M49.9411 68.0466H46.379V71.6087H49.9411V68.0466Z" fill="#161522"/>
<path d="M39.2548 71.6087H35.6927V75.1708H39.2548V71.6087Z" fill="#161522"/>
</g>
<path d="M39.2537 0.60849H35.6895V4.17269H39.2537V0.60849Z" fill="#222034"/>
<path d="M42.8179 0.60849H39.2537V4.17269H42.8179V0.60849Z" fill="#222034"/>
<path d="M32.1253 4.17269H28.5611V7.73688H32.1253V4.17269Z" fill="#222034"/>
<path d="M35.6895 4.17269H32.1253V7.73688H35.6895V4.17269Z" fill="#222034"/>
<path d="M39.2537 4.17269H35.6895V7.73688H39.2537V4.17269Z" fill="#D9D9D9"/>
<path d="M42.8179 4.17269H39.2537V7.73688H42.8179V4.17269Z" fill="#D9D9D9"/>
<path d="M46.3821 4.17269H42.8179V7.73688H46.3821V4.17269Z" fill="#222034"/>
<path d="M49.9463 4.17269H46.3821V7.73688H49.9463V4.17269Z" fill="#222034"/>
<path d="M24.9969 7.73688H21.4327V11.3011H24.9969V7.73688Z" fill="#222034"/>
<path d="M28.5611 7.73688H24.9969V11.3011H28.5611V7.73688Z" fill="#222034"/>
<path d="M32.1253 7.73688H28.5611V11.3011H32.1253V7.73688Z" fill="#D9D9D9"/>
<path d="M35.6895 7.73688H32.1253V11.3011H35.6895V7.73688Z" fill="#D9D9D9"/>
<path d="M39.2537 7.73688H35.6895V11.3011H39.2537V7.73688Z" fill="#D9D9D9"/>
<path d="M42.8179 7.73688H39.2537V11.3011H42.8179V7.73688Z" fill="#D9D9D9"/>
<path d="M46.3821 7.73688H42.8179V11.3011H46.3821V7.73688Z" fill="#D9D9D9"/>
<path d="M49.9463 7.73688H46.3821V11.3011H49.9463V7.73688Z" fill="#D9D9D9"/>
<path d="M53.5105 7.73688H49.9463V11.3011H53.5105V7.73688Z" fill="#222034"/>
<path d="M57.0747 7.73688H53.5105V11.3011H57.0747V7.73688Z" fill="#222034"/>
<path d="M17.8685 11.3011H14.3043V14.8653H17.8685V11.3011Z" fill="#222034"/>
<path d="M21.4327 11.3011H17.8685V14.8653H21.4327V11.3011Z" fill="#222034"/>
<path d="M24.9969 11.3011H21.4327V14.8653H24.9969V11.3011Z" fill="#D9D9D9"/>
<path d="M28.5611 11.3011H24.9969V14.8653H28.5611V11.3011Z" fill="#D9D9D9"/>
<path d="M32.1253 11.3011H28.5611V14.8653H32.1253V11.3011Z" fill="#D9D9D9"/>
<path d="M35.6895 11.3011H32.1253V14.8653H35.6895V11.3011Z" fill="#D9D9D9"/>
<path d="M39.2537 11.3011H35.6895V14.8653H39.2537V11.3011Z" fill="#D9D9D9"/>
<path d="M42.8179 11.3011H39.2537V14.8653H42.8179V11.3011Z" fill="#D9D9D9"/>
<path d="M46.3821 11.3011H42.8179V14.8653H46.3821V11.3011Z" fill="#D9D9D9"/>
<path d="M49.9463 11.3011H46.3821V14.8653H49.9463V11.3011Z" fill="#D9D9D9"/>
<path d="M53.5105 11.3011H49.9463V14.8653H53.5105V11.3011Z" fill="#D9D9D9"/>
<path d="M57.0747 11.3011H53.5105V14.8653H57.0747V11.3011Z" fill="#D9D9D9"/>
<path d="M60.6389 11.3011H57.0747V14.8653H60.6389V11.3011Z" fill="#222034"/>
<path d="M64.2031 11.3011H60.6389V14.8653H64.2031V11.3011Z" fill="#222034"/>
<path d="M14.3043 14.8653H10.7401V18.4295H14.3043V14.8653Z" fill="#222034"/>
<path d="M17.8685 14.8653H14.3043V18.4295H17.8685V14.8653Z" fill="#D9D9D9"/>
<path d="M21.4327 14.8653H17.8685V18.4295H21.4327V14.8653Z" fill="#D9D9D9"/>
<path d="M24.9969 14.8653H21.4327V18.4295H24.9969V14.8653Z" fill="#D9D9D9"/>
<path d="M28.5611 14.8653H24.9969V18.4295H28.5611V14.8653Z" fill="#D9D9D9"/>
<path d="M32.1253 14.8653H28.5611V18.4295H32.1253V14.8653Z" fill="#D9D9D9"/>
<path d="M35.6895 14.8653H32.1253V18.4295H35.6895V14.8653Z" fill="#D9D9D9"/>
<path d="M39.2537 14.8653H35.6895V18.4295H39.2537V14.8653Z" fill="#D9D9D9"/>
<path d="M42.8179 14.8653H39.2537V18.4295H42.8179V14.8653Z" fill="#D9D9D9"/>
<path d="M46.3821 14.8653H42.8179V18.4295H46.3821V14.8653Z" fill="#D9D9D9"/>
<path d="M49.9463 14.8653H46.3821V18.4295H49.9463V14.8653Z" fill="#D9D9D9"/>
<path d="M53.5105 14.8653H49.9463V18.4295H53.5105V14.8653Z" fill="#D9D9D9"/>
<path d="M57.0747 14.8653H53.5105V18.4295H57.0747V14.8653Z" fill="#D9D9D9"/>
<path d="M60.6389 14.8653H57.0747V18.4295H60.6389V14.8653Z" fill="#EEEEEE"/>
<path d="M64.2031 14.8653H60.6389V18.4295H64.2031V14.8653Z" fill="#EEEEEE"/>
<path d="M67.7673 14.8653H64.2031V18.4295H67.7673V14.8653Z" fill="#161522"/>
<path d="M10.7401 18.4295H7.17594V21.9937H10.7401V18.4295Z" fill="#161522"/>
<path d="M14.3043 18.4295H10.7401V21.9937H14.3043V18.4295Z" fill="#D5D5D5"/>
<path d="M17.8685 18.4295H14.3043V21.9937H17.8685V18.4295Z" fill="#222034"/>
<path d="M21.4327 18.4295H17.8685V21.9937H21.4327V18.4295Z" fill="#222034"/>
<path d="M24.9969 18.4295H21.4327V21.9937H24.9969V18.4295Z" fill="#D9D9D9"/>
<path d="M28.5611 18.4295H24.9969V21.9937H28.5611V18.4295Z" fill="#D9D9D9"/>
<path d="M32.1253 18.4295H28.5611V21.9937H32.1253V18.4295Z" fill="#D9D9D9"/>
<path d="M35.6895 18.4295H32.1253V21.9937H35.6895V18.4295Z" fill="#D9D9D9"/>
<path d="M39.2537 18.4295H35.6895V21.9937H39.2537V18.4295Z" fill="#D9D9D9"/>
<path d="M42.8179 18.4295H39.2537V21.9937H42.8179V18.4295Z" fill="#D9D9D9"/>
<path d="M46.3821 18.4295H42.8179V21.9937H46.3821V18.4295Z" fill="#D9D9D9"/>
<path d="M49.9463 18.4295H46.3821V21.9937H49.9463V18.4295Z" fill="#D9D9D9"/>
<path d="M53.5105 18.4295H49.9463V21.9937H53.5105V18.4295Z" fill="#EEEEEE"/>
<path d="M57.0747 18.4295H53.5105V21.9937H57.0747V18.4295Z" fill="#EEEEEE"/>
<path d="M60.6389 18.4295H57.0747V21.9937H60.6389V18.4295Z" fill="#161522"/>
<path d="M64.2031 18.4295H60.6389V21.9937H64.2031V18.4295Z" fill="#161522"/>
<path d="M67.7673 18.4295H64.2031V21.9937H67.7673V18.4295Z" fill="#AAAAAA"/>
<path d="M71.3315 18.4295H67.7673V21.9937H71.3315V18.4295Z" fill="#161522"/>
<path d="M10.7401 21.9937H7.17594V25.5579H10.7401V21.9937Z" fill="#161522"/>
<path d="M14.3043 21.9937H10.7401V25.5579H14.3043V21.9937Z" fill="#D5D5D5"/>
<path d="M17.8685 21.9937H14.3043V25.5579H17.8685V21.9937Z" fill="#D5D5D5"/>
<path d="M21.4327 21.9937H17.8685V25.5579H21.4327V21.9937Z" fill="#D5D5D5"/>
<path d="M24.9969 21.9937H21.4327V25.5579H24.9969V21.9937Z" fill="#222034"/>
<path d="M28.5611 21.9937H24.9969V25.5579H28.5611V21.9937Z" fill="#222034"/>
<path d="M32.1253 21.9937H28.5611V25.5579H32.1253V21.9937Z" fill="#D9D9D9"/>
<path d="M35.6895 21.9937H32.1253V25.5579H35.6895V21.9937Z" fill="#D9D9D9"/>
<path d="M39.2537 21.9937H35.6895V25.5579H39.2537V21.9937Z" fill="#D9D9D9"/>
<path d="M42.8179 21.9937H39.2537V25.5579H42.8179V21.9937Z" fill="#D9D9D9"/>
<path d="M46.3821 21.9937H42.8179V25.5579H46.3821V21.9937Z" fill="#EEEEEE"/>
<path d="M49.9463 21.9937H46.3821V25.5579H49.9463V21.9937Z" fill="#EEEEEE"/>
<path d="M53.5105 21.9937H49.9463V25.5579H53.5105V21.9937Z" fill="#161522"/>
<path d="M57.0747 21.9937H53.5105V25.5579H57.0747V21.9937Z" fill="#161522"/>
<path d="M60.6389 21.9937H57.0747V25.5579H60.6389V21.9937Z" fill="#AAAAAA"/>
<path d="M64.2031 21.9937H60.6389V25.5579H64.2031V21.9937Z" fill="#AAAAAA"/>
<path d="M67.7673 21.9937H64.2031V25.5579H67.7673V21.9937Z" fill="#AAAAAA"/>
<path d="M71.3315 21.9937H67.7673V25.5579H71.3315V21.9937Z" fill="#161522"/>
<path d="M7.17594 25.5579H3.61174V29.1221H7.17594V25.5579Z" fill="#161522"/>
<path d="M10.7401 25.5579H7.17594V29.1221H10.7401V25.5579Z" fill="#D5D5D5"/>
<path d="M14.3043 25.5579H10.7401V29.1221H14.3043V25.5579Z" fill="#D5D5D5"/>
<path d="M17.8685 25.5579H14.3043V29.1221H17.8685V25.5579Z" fill="#D5D5D5"/>
<path d="M21.4327 25.5579H17.8685V29.1221H21.4327V25.5579Z" fill="#D5D5D5"/>
<path d="M24.9969 25.5579H21.4327V29.1221H24.9969V25.5579Z" fill="#D5D5D5"/>
<path d="M28.5611 25.5579H24.9969V29.1221H28.5611V25.5579Z" fill="#D5D5D5"/>
<path d="M32.1253 25.5579H28.5611V29.1221H32.1253V25.5579Z" fill="#222034"/>
<path d="M35.6895 25.5579H32.1253V29.1221H35.6895V25.5579Z" fill="#222034"/>
<path d="M39.2537 25.5579H35.6895V29.1221H39.2537V25.5579Z" fill="#EEEEEE"/>
<path d="M42.8179 25.5579H39.2537V29.1221H42.8179V25.5579Z" fill="#EEEEEE"/>
<path d="M46.3821 25.5579H42.8179V29.1221H46.3821V25.5579Z" fill="#161522"/>
<path d="M49.9463 25.5579H46.3821V29.1221H49.9463V25.5579Z" fill="#161522"/>
<path d="M53.5105 25.5579H49.9463V29.1221H53.5105V25.5579Z" fill="#AAAAAA"/>
<path d="M57.0747 25.5579H53.5105V29.1221H57.0747V25.5579Z" fill="#AAAAAA"/>
<path d="M60.6389 25.5579H57.0747V29.1221H60.6389V25.5579Z" fill="#AAAAAA"/>
<path d="M64.2031 25.5579H60.6389V29.1221H64.2031V25.5579Z" fill="#AAAAAA"/>
<path d="M67.7673 25.5579H64.2031V29.1221H67.7673V25.5579Z" fill="#AAAAAA"/>
<path d="M71.3315 25.5579H67.7673V29.1221H71.3315V25.5579Z" fill="#AAAAAA"/>
<path d="M74.8957 25.5579H71.3315V29.1221H74.8957V25.5579Z" fill="#161522"/>
<path d="M7.17594 29.1221H3.61174V32.6863H7.17594V29.1221Z" fill="#161522"/>
<path d="M10.7401 29.1221H7.17594V32.6863H10.7401V29.1221Z" fill="#D5D5D5"/>
<path d="M14.3043 29.1221H10.7401V32.6863H14.3043V29.1221Z" fill="#D5D5D5"/>
<path d="M17.8685 29.1221H14.3043V32.6863H17.8685V29.1221Z" fill="#D5D5D5"/>
<path d="M21.4327 29.1221H17.8685V32.6863H21.4327V29.1221Z" fill="#D5D5D5"/>
<path d="M24.9969 29.1221H21.4327V32.6863H24.9969V29.1221Z" fill="#D5D5D5"/>
<path d="M28.5611 29.1221H24.9969V32.6863H28.5611V29.1221Z" fill="#D5D5D5"/>
<path d="M32.1253 29.1221H28.5611V32.6863H32.1253V29.1221Z" fill="#D5D5D5"/>
<path d="M35.6895 29.1221H32.1253V32.6863H35.6895V29.1221Z" fill="#D5D5D5"/>
<path d="M39.2537 29.1221H35.6895V32.6863H39.2537V29.1221Z" fill="#161522"/>
<path d="M42.8179 29.1221H39.2537V32.6863H42.8179V29.1221Z" fill="#161522"/>
<path d="M46.3821 29.1221H42.8179V32.6863H46.3821V29.1221Z" fill="#AAAAAA"/>
<path d="M49.9463 29.1221H46.3821V32.6863H49.9463V29.1221Z" fill="#AAAAAA"/>
<path d="M53.5105 29.1221H49.9463V32.6863H53.5105V29.1221Z" fill="#AAAAAA"/>
<path d="M57.0747 29.1221H53.5105V32.6863H57.0747V29.1221Z" fill="#AAAAAA"/>
<path d="M60.6389 29.1221H57.0747V32.6863H60.6389V29.1221Z" fill="#AAAAAA"/>
<path d="M64.2031 29.1221H60.6389V32.6863H64.2031V29.1221Z" fill="#AAAAAA"/>
<path d="M67.7673 29.1221H64.2031V32.6863H67.7673V29.1221Z" fill="#AAAAAA"/>
<path d="M71.3315 29.1221H67.7673V32.6863H71.3315V29.1221Z" fill="#AAAAAA"/>
<path d="M74.8957 29.1221H71.3315V32.6863H74.8957V29.1221Z" fill="#161522"/>
<path d="M7.17594 32.6863H3.61174V36.2505H7.17594V32.6863Z" fill="#161522"/>
<path d="M10.7401 32.6863H7.17594V36.2505H10.7401V32.6863Z" fill="#D5D5D5"/>
<path d="M14.3043 32.6863H10.7401V36.2505H14.3043V32.6863Z" fill="#D5D5D5"/>
<path d="M17.8685 32.6863H14.3043V36.2505H17.8685V32.6863Z" fill="#D5D5D5"/>
<path d="M21.4327 32.6863H17.8685V36.2505H21.4327V32.6863Z" fill="#D5D5D5"/>
<path d="M24.9969 32.6863H21.4327V36.2505H24.9969V32.6863Z" fill="#D5D5D5"/>
<path d="M28.5611 32.6863H24.9969V36.2505H28.5611V32.6863Z" fill="#D5D5D5"/>
<path d="M32.1253 32.6863H28.5611V36.2505H32.1253V32.6863Z" fill="#D5D5D5"/>
<path d="M35.6895 32.6863H32.1253V36.2505H35.6895V32.6863Z" fill="#D5D5D5"/>
<path d="M39.2537 32.6863H35.6895V36.2505H39.2537V32.6863Z" fill="#161522"/>
<path d="M42.8179 32.6863H39.2537V36.2505H42.8179V32.6863Z" fill="#BABABA"/>
<path d="M46.3821 32.6863H42.8179V36.2505H46.3821V32.6863Z" fill="#AAAAAA"/>
<path d="M49.9463 32.6863H46.3821V36.2505H49.9463V32.6863Z" fill="#AAAAAA"/>
<path d="M53.5105 32.6863H49.9463V36.2505H53.5105V32.6863Z" fill="#AAAAAA"/>
<path d="M57.0747 32.6863H53.5105V36.2505H57.0747V32.6863Z" fill="#AAAAAA"/>
<path d="M60.6389 32.6863H57.0747V36.2505H60.6389V32.6863Z" fill="#AAAAAA"/>
<path d="M64.2031 32.6863H60.6389V36.2505H64.2031V32.6863Z" fill="#AAAAAA"/>
<path d="M67.7673 32.6863H64.2031V36.2505H67.7673V32.6863Z" fill="#AAAAAA"/>
<path d="M71.3315 32.6863H67.7673V36.2505H71.3315V32.6863Z" fill="#AAAAAA"/>
<path d="M74.8957 32.6863H71.3315V36.2505H74.8957V32.6863Z" fill="#161522"/>
<path d="M3.61174 36.2505H0.0475464V39.8146H3.61174V36.2505Z" fill="#161522"/>
<path d="M7.17594 36.2505H3.61174V39.8146H7.17594V36.2505Z" fill="#BFBFBF"/>
<path d="M10.7401 36.2505H7.17594V39.8146H10.7401V36.2505Z" fill="#D5D5D5"/>
<path d="M14.3043 36.2505H10.7401V39.8146H14.3043V36.2505Z" fill="#D5D5D5"/>
<path d="M17.8685 36.2505H14.3043V39.8146H17.8685V36.2505Z" fill="#D5D5D5"/>
<path d="M21.4327 36.2505H17.8685V39.8146H21.4327V36.2505Z" fill="#D5D5D5"/>
<path d="M24.9969 36.2505H21.4327V39.8146H24.9969V36.2505Z" fill="#D5D5D5"/>
<path d="M28.5611 36.2505H24.9969V39.8146H28.5611V36.2505Z" fill="#D5D5D5"/>
<path d="M32.1253 36.2505H28.5611V39.8146H32.1253V36.2505Z" fill="#D5D5D5"/>
<path d="M35.6895 36.2505H32.1253V39.8146H35.6895V36.2505Z" fill="#D5D5D5"/>
<path d="M39.2537 36.2505H35.6895V39.8146H39.2537V36.2505Z" fill="#161522"/>
<path d="M42.8179 36.2505H39.2537V39.8146H42.8179V36.2505Z" fill="#BABABA"/>
<path d="M46.3821 36.2505H42.8179V39.8146H46.3821V36.2505Z" fill="#AAAAAA"/>
<path d="M49.9463 36.2505H46.3821V39.8146H49.9463V36.2505Z" fill="#AAAAAA"/>
<path d="M53.5105 36.2505H49.9463V39.8146H53.5105V36.2505Z" fill="#AAAAAA"/>
<path d="M57.0747 36.2505H53.5105V39.8146H57.0747V36.2505Z" fill="#AAAAAA"/>
<path d="M60.6389 36.2505H57.0747V39.8146H60.6389V36.2505Z" fill="#AAAAAA"/>
<path d="M64.2031 36.2505H60.6389V39.8146H64.2031V36.2505Z" fill="#AAAAAA"/>
<path d="M67.7673 36.2505H64.2031V39.8146H67.7673V36.2505Z" fill="#AAAAAA"/>
<path d="M71.3315 36.2505H67.7673V39.8146H71.3315V36.2505Z" fill="#AAAAAA"/>
<path d="M74.8957 36.2505H71.3315V39.8146H74.8957V36.2505Z" fill="#AAAAAA"/>
<path d="M78.4599 36.2505H74.8957V39.8146H78.4599V36.2505Z" fill="#161522"/>
<path d="M3.61174 39.8146H0.0475464V43.3788H3.61174V39.8146Z" fill="#161522"/>
<path d="M7.17594 39.8146H3.61174V43.3788H7.17594V39.8146Z" fill="#BFBFBF"/>
<path d="M10.7401 39.8146H7.17594V43.3788H10.7401V39.8146Z" fill="#D5D5D5"/>
<path d="M14.3043 39.8146H10.7401V43.3788H14.3043V39.8146Z" fill="#D5D5D5"/>
<path d="M17.8685 39.8146H14.3043V43.3788H17.8685V39.8146Z" fill="#D5D5D5"/>
<path d="M21.4327 39.8146H17.8685V43.3788H21.4327V39.8146Z" fill="#D5D5D5"/>
<path d="M24.9969 39.8146H21.4327V43.3788H24.9969V39.8146Z" fill="#D5D5D5"/>
<path d="M28.5611 39.8146H24.9969V43.3788H28.5611V39.8146Z" fill="#D5D5D5"/>
<path d="M32.1253 39.8146H28.5611V43.3788H32.1253V39.8146Z" fill="#D5D5D5"/>
<path d="M35.6895 39.8146H32.1253V43.3788H35.6895V39.8146Z" fill="#D5D5D5"/>
<path d="M39.2537 39.8146H35.6895V43.3788H39.2537V39.8146Z" fill="#161522"/>
<path d="M42.8179 39.8146H39.2537V43.3788H42.8179V39.8146Z" fill="#BABABA"/>
<path d="M46.3821 39.8146H42.8179V43.3788H46.3821V39.8146Z" fill="#AAAAAA"/>
<path d="M49.9463 39.8146H46.3821V43.3788H49.9463V39.8146Z" fill="#AAAAAA"/>
<path d="M53.5105 39.8146H49.9463V43.3788H53.5105V39.8146Z" fill="#AAAAAA"/>
<path d="M57.0747 39.8146H53.5105V43.3788H57.0747V39.8146Z" fill="#AAAAAA"/>
<path d="M60.6389 39.8146H57.0747V43.3788H60.6389V39.8146Z" fill="#AAAAAA"/>
<path d="M64.2031 39.8146H60.6389V43.3788H64.2031V39.8146Z" fill="#AAAAAA"/>
<path d="M67.7673 39.8146H64.2031V43.3788H67.7673V39.8146Z" fill="#AAAAAA"/>
<path d="M71.3315 39.8146H67.7673V43.3788H71.3315V39.8146Z" fill="#AAAAAA"/>
<path d="M74.8957 39.8146H71.3315V43.3788H74.8957V39.8146Z" fill="#999999"/>
<path d="M78.4599 39.8146H74.8957V43.3788H78.4599V39.8146Z" fill="#161522"/>
<path d="M3.61174 43.3788H0.0475464V46.943H3.61174V43.3788Z" fill="#161522"/>
<path d="M7.17594 43.3788H3.61174V46.943H7.17594V43.3788Z" fill="#BFBFBF"/>
<path d="M10.7401 43.3788H7.17594V46.943H10.7401V43.3788Z" fill="#D5D5D5"/>
<path d="M14.3043 43.3788H10.7401V46.943H14.3043V43.3788Z" fill="#D5D5D5"/>
<path d="M17.8685 43.3788H14.3043V46.943H17.8685V43.3788Z" fill="#D5D5D5"/>
<path d="M21.4327 43.3788H17.8685V46.943H21.4327V43.3788Z" fill="#D5D5D5"/>
<path d="M24.9969 43.3788H21.4327V46.943H24.9969V43.3788Z" fill="#D5D5D5"/>
<path d="M28.5611 43.3788H24.9969V46.943H28.5611V43.3788Z" fill="#D5D5D5"/>
<path d="M32.1253 43.3788H28.5611V46.943H32.1253V43.3788Z" fill="#D5D5D5"/>
<path d="M35.6895 43.3788H32.1253V46.943H35.6895V43.3788Z" fill="#D5D5D5"/>
<path d="M39.2537 43.3788H35.6895V46.943H39.2537V43.3788Z" fill="#161522"/>
<path d="M42.8179 43.3788H39.2537V46.943H42.8179V43.3788Z" fill="#BABABA"/>
<path d="M46.3821 43.3788H42.8179V46.943H46.3821V43.3788Z" fill="#AAAAAA"/>
<path d="M49.9463 43.3788H46.3821V46.943H49.9463V43.3788Z" fill="#AAAAAA"/>
<path d="M53.5105 43.3788H49.9463V46.943H53.5105V43.3788Z" fill="#AAAAAA"/>
<path d="M57.0747 43.3788H53.5105V46.943H57.0747V43.3788Z" fill="#AAAAAA"/>
<path d="M60.6389 43.3788H57.0747V46.943H60.6389V43.3788Z" fill="#AAAAAA"/>
<path d="M64.2031 43.3788H60.6389V46.943H64.2031V43.3788Z" fill="#AAAAAA"/>
<path d="M67.7673 43.3788H64.2031V46.943H67.7673V43.3788Z" fill="#AAAAAA"/>
<path d="M71.3315 43.3788H67.7673V46.943H71.3315V43.3788Z" fill="#AAAAAA"/>
<path d="M74.8957 43.3788H71.3315V46.943H74.8957V43.3788Z" fill="#999999"/>
<path d="M78.4599 43.3788H74.8957V46.943H78.4599V43.3788Z" fill="#161522"/>
<path d="M3.61174 46.943H0.0475464V50.5072H3.61174V46.943Z" fill="#161522"/>
<path d="M7.17594 46.943H3.61174V50.5072H7.17594V46.943Z" fill="#161522"/>
<path d="M10.7401 46.943H7.17594V50.5072H10.7401V46.943Z" fill="#BFBFBF"/>
<path d="M14.3043 46.943H10.7401V50.5072H14.3043V46.943Z" fill="#BFBFBF"/>
<path d="M17.8685 46.943H14.3043V50.5072H17.8685V46.943Z" fill="#D5D5D5"/>
<path d="M21.4327 46.943H17.8685V50.5072H21.4327V46.943Z" fill="#D5D5D5"/>
<path d="M24.9969 46.943H21.4327V50.5072H24.9969V46.943Z" fill="#D5D5D5"/>
<path d="M28.5611 46.943H24.9969V50.5072H28.5611V46.943Z" fill="#D5D5D5"/>
<path d="M32.1253 46.943H28.5611V50.5072H32.1253V46.943Z" fill="#D5D5D5"/>
<path d="M35.6895 46.943H32.1253V50.5072H35.6895V46.943Z" fill="#D5D5D5"/>
<path d="M39.2537 46.943H35.6895V50.5072H39.2537V46.943Z" fill="#161522"/>
<path d="M42.8179 46.943H39.2537V50.5072H42.8179V46.943Z" fill="#BABABA"/>
<path d="M46.3821 46.943H42.8179V50.5072H46.3821V46.943Z" fill="#AAAAAA"/>
<path d="M49.9463 46.943H46.3821V50.5072H49.9463V46.943Z" fill="#AAAAAA"/>
<path d="M53.5105 46.943H49.9463V50.5072H53.5105V46.943Z" fill="#AAAAAA"/>
<path d="M57.0747 46.943H53.5105V50.5072H57.0747V46.943Z" fill="#AAAAAA"/>
<path d="M60.6389 46.943H57.0747V50.5072H60.6389V46.943Z" fill="#AAAAAA"/>
<path d="M64.2031 46.943H60.6389V50.5072H64.2031V46.943Z" fill="#AAAAAA"/>
<path d="M67.7673 46.943H64.2031V50.5072H67.7673V46.943Z" fill="#999999"/>
<path d="M71.3315 46.943H67.7673V50.5072H71.3315V46.943Z" fill="#999999"/>
<path d="M74.8957 46.943H71.3315V50.5072H74.8957V46.943Z" fill="#161522"/>
<path d="M78.4599 46.943H74.8957V50.5072H78.4599V46.943Z" fill="#161522"/>
<path d="M10.7401 50.5072H7.17594V54.0714H10.7401V50.5072Z" fill="#161522"/>
<path d="M14.3043 50.5072H10.7401V54.0714H14.3043V50.5072Z" fill="#161522"/>
<path d="M17.8685 50.5072H14.3043V54.0714H17.8685V50.5072Z" fill="#BFBFBF"/>
<path d="M21.4327 50.5072H17.8685V54.0714H21.4327V50.5072Z" fill="#BFBFBF"/>
<path d="M24.9969 50.5072H21.4327V54.0714H24.9969V50.5072Z" fill="#D5D5D5"/>
<path d="M28.5611 50.5072H24.9969V54.0714H28.5611V50.5072Z" fill="#D5D5D5"/>
<path d="M32.1253 50.5072H28.5611V54.0714H32.1253V50.5072Z" fill="#D5D5D5"/>
<path d="M35.6895 50.5072H32.1253V54.0714H35.6895V50.5072Z" fill="#D5D5D5"/>
<path d="M39.2537 50.5072H35.6895V54.0714H39.2537V50.5072Z" fill="#161522"/>
<path d="M42.8179 50.5072H39.2537V54.0714H42.8179V50.5072Z" fill="#BABABA"/>
<path d="M46.3821 50.5072H42.8179V54.0714H46.3821V50.5072Z" fill="#AAAAAA"/>
<path d="M49.9463 50.5072H46.3821V54.0714H49.9463V50.5072Z" fill="#AAAAAA"/>
<path d="M53.5105 50.5072H49.9463V54.0714H53.5105V50.5072Z" fill="#AAAAAA"/>
<path d="M57.0747 50.5072H53.5105V54.0714H57.0747V50.5072Z" fill="#AAAAAA"/>
<path d="M60.6389 50.5072H57.0747V54.0714H60.6389V50.5072Z" fill="#999999"/>
<path d="M64.2031 50.5072H60.6389V54.0714H64.2031V50.5072Z" fill="#999999"/>
<path d="M67.7673 50.5072H64.2031V54.0714H67.7673V50.5072Z" fill="#161522"/>
<path d="M71.3315 50.5072H67.7673V54.0714H71.3315V50.5072Z" fill="#161522"/>
<path d="M17.8685 54.0714H14.3043V57.6356H17.8685V54.0714Z" fill="#161522"/>
<path d="M21.4327 54.0714H17.8685V57.6356H21.4327V54.0714Z" fill="#161522"/>
<path d="M24.9969 54.0714H21.4327V57.6356H24.9969V54.0714Z" fill="#BFBFBF"/>
<path d="M28.5611 54.0714H24.9969V57.6356H28.5611V54.0714Z" fill="#BFBFBF"/>
<path d="M32.1253 54.0714H28.5611V57.6356H32.1253V54.0714Z" fill="#D5D5D5"/>
<path d="M35.6895 54.0714H32.1253V57.6356H35.6895V54.0714Z" fill="#D5D5D5"/>
<path d="M39.2537 54.0714H35.6895V57.6356H39.2537V54.0714Z" fill="#161522"/>
<path d="M42.8179 54.0714H39.2537V57.6356H42.8179V54.0714Z" fill="#BABABA"/>
<path d="M46.3821 54.0714H42.8179V57.6356H46.3821V54.0714Z" fill="#AAAAAA"/>
<path d="M49.9463 54.0714H46.3821V57.6356H49.9463V54.0714Z" fill="#AAAAAA"/>
<path d="M53.5105 54.0714H49.9463V57.6356H53.5105V54.0714Z" fill="#999999"/>
<path d="M57.0747 54.0714H53.5105V57.6356H57.0747V54.0714Z" fill="#999999"/>
<path d="M60.6389 54.0714H57.0747V57.6356H60.6389V54.0714Z" fill="#161522"/>
<path d="M64.2031 54.0714H60.6389V57.6356H64.2031V54.0714Z" fill="#161522"/>
<path d="M24.9969 57.6356H21.4327V61.1998H24.9969V57.6356Z" fill="#161522"/>
<path d="M28.5611 57.6356H24.9969V61.1998H28.5611V57.6356Z" fill="#161522"/>
<path d="M32.1253 57.6356H28.5611V61.1998H32.1253V57.6356Z" fill="#BFBFBF"/>
<path d="M35.6895 57.6356H32.1253V61.1998H35.6895V57.6356Z" fill="#BFBFBF"/>
<path d="M39.2537 57.6356H35.6895V61.1998H39.2537V57.6356Z" fill="#161522"/>
<path d="M42.8179 57.6356H39.2537V61.1998H42.8179V57.6356Z" fill="#BABABA"/>
<path d="M46.3821 57.6356H42.8179V61.1998H46.3821V57.6356Z" fill="#999999"/>
<path d="M49.9463 57.6356H46.3821V61.1998H49.9463V57.6356Z" fill="#999999"/>
<path d="M53.5105 57.6356H49.9463V61.1998H53.5105V57.6356Z" fill="#161522"/>
<path d="M57.0747 57.6356H53.5105V61.1998H57.0747V57.6356Z" fill="#161522"/>
<path d="M32.1253 61.1998H28.5611V64.764H32.1253V61.1998Z" fill="#161522"/>
<path d="M35.6895 61.1998H32.1253V64.764H35.6895V61.1998Z" fill="#161522"/>
<path d="M39.2537 61.1998H35.6895V64.764H39.2537V61.1998Z" fill="#161522"/>
<path d="M42.8179 61.1998H39.2537V64.764H42.8179V61.1998Z" fill="#B0B0B0"/>
<path d="M46.3821 61.1998H42.8179V64.764H46.3821V61.1998Z" fill="#161522"/>
<path d="M49.9463 61.1998H46.3821V64.764H49.9463V61.1998Z" fill="#161522"/>
<path d="M39.2537 64.764H35.6895V68.3282H39.2537V64.764Z" fill="#161522"/>
<path d="M42.8179 64.764H39.2537V68.3282H42.8179V64.764Z" fill="#161522"/>
</svg>
