<svg width="100" height="100" viewBox="0 0 100 100" fill="none" xmlns="http://www.w3.org/2000/svg">
<g clip-path="url(#clip0_47_37)">
<path d="M17.458 21.4586H13.0935V25.8232H17.458V21.4586Z" fill="#222034"/>
<path d="M82.9254 21.4586H78.5609V25.8232H82.9254V21.4586Z" fill="#161522"/>
<path d="M17.458 25.8232H13.0935V30.1878V34.5525H8.72899V38.9171V43.2818V47.6464V52.011V56.3757V60.7403H13.0935H17.458V65.105H21.8225H26.187V69.4696H30.5515H34.916V73.8343H39.2804H43.6449V69.4696V65.105V60.7403V56.3757V52.011V47.6464V43.2818V38.9171H39.2804H34.916V34.5525H30.5515H26.187V30.1878H21.8225H17.458V25.8232Z" fill="#D9D9D9"/>
<path d="M48.0094 8.36464H43.6449V12.7293H39.2804H34.916V17.0939H30.5515H26.187V21.4586H21.8225H17.458V25.8232H21.8225H26.187V30.1878H30.5515H34.916V34.5525H39.2804H43.6449H48.0094H52.3739V30.1878H56.7384H61.1029V25.8232H65.4674H69.8319V21.4586V17.0939H65.4674H61.1029V12.7293H56.7384H52.3739V8.36464H48.0094Z" fill="#D9D9D9"/>
<path d="M74.1964 21.4586H69.8319V25.8232H74.1964H78.5609V21.4586H74.1964Z" fill="#EEEEEE"/>
<path d="M65.4674 25.8232H61.1029V30.1878H65.4674H69.8319V25.8232H65.4674Z" fill="#EEEEEE"/>
<path d="M56.7384 30.1878H52.3739V34.5525H56.7384H61.1029V30.1878H56.7384Z" fill="#EEEEEE"/>
<path d="M48.0094 34.5525H43.6449V38.9171H48.0094H52.3739V34.5525H48.0094Z" fill="#EEEEEE"/>
<path d="M39.2804 34.5525H34.916V38.9171H39.2804H43.6449V34.5525H39.2804Z" fill="#222034"/>
<path d="M30.5515 30.1878H26.187V34.5525H30.5515H34.916V30.1878H30.5515Z" fill="#222034"/>
<path d="M21.8225 25.8232H17.458V30.1878H21.8225H26.187V25.8232H21.8225Z" fill="#222034"/>
<path d="M21.8225 17.0939H17.458V21.4586H21.8225H26.187V17.0939H21.8225Z" fill="#222034"/>
<path d="M30.5515 12.7293H26.187V17.0939H30.5515H34.916V12.7293H30.5515Z" fill="#222034"/>
<path d="M39.2804 8.36464H34.916V12.7293H39.2804H43.6449V8.36464H39.2804Z" fill="#222034"/>
<path d="M48.0094 4H43.6449V8.36464H48.0094H52.3739V4H48.0094Z" fill="#222034"/>
<path d="M56.7384 8.36464H52.3739V12.7293H56.7384H61.1029V8.36464H56.7384Z" fill="#222034"/>
<path d="M65.4674 12.7293H61.1029V17.0939H65.4674H69.8319V12.7293H65.4674Z" fill="#222034"/>
<path d="M74.1964 17.0939H69.8319V21.4586H74.1964H78.5609V17.0939H74.1964Z" fill="#222034"/>
<path d="M13.0935 25.8232H8.72899V30.1878V34.5525H13.0935V30.1878V25.8232Z" fill="#161522"/>
<path d="M8.72899 34.5525H4.36449V38.9171V43.2818V47.6464H8.72899V43.2818V38.9171V34.5525Z" fill="#161522"/>
<path d="M4.36449 47.6464H0V52.011V56.3757V60.7403V65.105H4.36449H8.72899V60.7403H4.36449V56.3757V52.011V47.6464Z" fill="#161522"/>
<path d="M13.0935 65.105H8.72899V69.4696H13.0935H17.458V65.105H13.0935Z" fill="#161522"/>
<path d="M21.8225 69.4696H17.458V73.8343H21.8225H26.187V69.4696H21.8225Z" fill="#161522"/>
<path d="M30.5515 73.8343H26.187V78.1989H30.5515H34.916V73.8343H30.5515Z" fill="#161522"/>
<path d="M56.7384 78.1989H52.3739V82.5635H56.7384H61.1029V78.1989H56.7384Z" fill="#161522"/>
<path d="M65.4674 73.8343H61.1029V78.1989H65.4674H69.8319V73.8343H65.4674Z" fill="#161522"/>
<path d="M74.1964 69.4696H69.8319V73.8343H74.1964H78.5609V69.4696H74.1964Z" fill="#161522"/>
<path d="M82.9254 65.105H78.5609V69.4696H82.9254H87.2899V65.105H82.9254Z" fill="#161522"/>
<path d="M96.0189 47.6464H91.6544V52.011V56.3757V60.7403H87.2899V65.105H91.6544H96.0189V60.7403V56.3757V52.011V47.6464Z" fill="#161522"/>
<path d="M91.6544 34.5525H87.2899V38.9171V43.2818V47.6464H91.6544V43.2818V38.9171V34.5525Z" fill="#161522"/>
<path d="M87.2899 25.8232H82.9254V30.1878V34.5525H87.2899V30.1878V25.8232Z" fill="#161522"/>
<path d="M56.7384 34.5525H52.3739V38.9171H56.7384H61.1029V34.5525H56.7384Z" fill="#161522"/>
<path d="M65.4674 30.1878H61.1029V34.5525H65.4674H69.8319V30.1878H65.4674Z" fill="#161522"/>
<path d="M74.1964 25.8232H69.8319V30.1878H74.1964H78.5609V25.8232H74.1964Z" fill="#161522"/>
<path d="M8.72899 47.6464H4.36449V52.011V56.3757V60.7403H8.72899V56.3757V52.011V47.6464Z" fill="#BFBFBF"/>
<path d="M13.0935 60.7403H8.72899V65.105H13.0935H17.458V60.7403H13.0935Z" fill="#BFBFBF"/>
<path d="M30.5515 69.4696H26.187V73.8343H30.5515H34.916V69.4696H30.5515Z" fill="#BFBFBF"/>
<path d="M39.2804 73.8343H34.916V78.1989H39.2804H43.6449V73.8343H39.2804Z" fill="#BFBFBF"/>
<path d="M21.8225 65.105H17.458V69.4696H21.8225H26.187V65.105H21.8225Z" fill="#BFBFBF"/>
<path d="M48.0094 38.9171H43.6449V43.2818V47.6464V52.011V56.3757V60.7403V65.105V69.4696V73.8343V78.1989H39.2804H34.916V82.5635H39.2804H43.6449V86.9282H48.0094H52.3739V82.5635H48.0094V78.1989V43.2818H52.3739V38.9171H48.0094Z" fill="#161522"/>
<path d="M52.3739 43.2818H48.0094V78.1989H52.3739V73.8343V43.2818Z" fill="#BABABA"/>
<path d="M52.3739 78.1989H48.0094V82.5635H52.3739V78.1989Z" fill="#B0B0B0"/>
<path d="M82.9254 25.8232H78.5609V30.1878H74.1964H69.8319V34.5525H65.4674H61.1029V38.9171H56.7384H52.3739V43.2818V73.8343H56.7384H61.1029V69.4696H65.4674H69.8319V65.105H74.1964H78.5609V60.7403H82.9254H87.2899V56.3757V52.011H91.6544V47.6464H87.2899V43.2818V38.9171V34.5525H82.9254V30.1878V25.8232Z" fill="#AAAAAA"/>
<path d="M56.7384 73.8343H52.3739V78.1989H56.7384H61.1029V73.8343H56.7384Z" fill="#999999"/>
<path d="M65.4674 69.4696H61.1029V73.8343H65.4674H69.8319V69.4696H65.4674Z" fill="#999999"/>
<path d="M74.1964 65.105H69.8319V69.4696H74.1964H78.5609V65.105H74.1964Z" fill="#999999"/>
<path d="M82.9254 60.7403H78.5609V65.105H82.9254H87.2899V60.7403H82.9254Z" fill="#999999"/>
<path d="M91.6544 52.011H87.2899V56.3757V60.7403H91.6544V56.3757V52.011Z" fill="#999999"/>
<g opacity="0.380392">
<path d="M100.327 56.0935H95.9653V60.4556H100.327V56.0935Z" fill="#161522"/>
<path d="M100.327 60.4556H95.9653V64.8177H100.327V60.4556Z" fill="#161522"/>
<path d="M4.36206 64.8177H0V69.1797H4.36206V64.8177Z" fill="#161522"/>
<path d="M8.72412 64.8177H4.36206V69.1797H8.72412V64.8177Z" fill="#161522"/>
<path d="M91.6032 64.8177H87.2412V69.1797H91.6032V64.8177Z" fill="#161522"/>
<path d="M95.9653 64.8177H91.6032V69.1797H95.9653V64.8177Z" fill="#161522"/>
<path d="M13.0862 69.1797H8.72412V73.5418H13.0862V69.1797Z" fill="#161522"/>
<path d="M17.4482 69.1797H13.0862V73.5418H17.4482V69.1797Z" fill="#161522"/>
<path d="M82.8791 69.1797H78.5171V73.5418H82.8791V69.1797Z" fill="#161522"/>
<path d="M87.2412 69.1797H82.8791V73.5418H87.2412V69.1797Z" fill="#161522"/>
<path d="M21.8103 73.5418H17.4482V77.9038H21.8103V73.5418Z" fill="#161522"/>
<path d="M26.1724 73.5418H21.8103V77.9038H26.1724V73.5418Z" fill="#161522"/>
<path d="M74.155 73.5418H69.7929V77.9038H74.155V73.5418Z" fill="#161522"/>
<path d="M78.5171 73.5418H74.155V77.9038H78.5171V73.5418Z" fill="#161522"/>
<path d="M30.5344 77.9038H26.1724V82.2659H30.5344V77.9038Z" fill="#161522"/>
<path d="M34.8965 77.9038H30.5344V82.2659H34.8965V77.9038Z" fill="#161522"/>
<path d="M65.4309 77.9038H61.0688V82.2659H65.4309V77.9038Z" fill="#161522"/>
<path d="M69.7929 77.9038H65.4309V82.2659H69.7929V77.9038Z" fill="#161522"/>
<path d="M39.2585 82.2659H34.8965V86.628H39.2585V82.2659Z" fill="#161522"/>
<path d="M43.6206 82.2659H39.2585V86.628H43.6206V82.2659Z" fill="#161522"/>
<path d="M56.7068 82.2659H52.3447V86.628H56.7068V82.2659Z" fill="#161522"/>
<path d="M61.0688 82.2659H56.7068V86.628H61.0688V82.2659Z" fill="#161522"/>
<path d="M47.9826 86.628H43.6206V90.99H47.9826V86.628Z" fill="#161522"/>
<path d="M52.3447 86.628H47.9826V90.99H52.3447V86.628Z" fill="#161522"/>
</g>
<g opacity="0.239216">
<path d="M100.327 51.7584H95.9654V56.1205H100.327V51.7584Z" fill="#161522"/>
<path d="M100.327 64.8446H95.9654V69.2066H100.327V64.8446Z" fill="#161522"/>
<path d="M91.6033 69.2066H87.2413V73.5687H91.6033V69.2066Z" fill="#161522"/>
<path d="M82.8792 73.5687H78.5171V77.9307H82.8792V73.5687Z" fill="#161522"/>
<path d="M87.2413 73.5687H82.8792V77.9307H87.2413V73.5687Z" fill="#161522"/>
<path d="M74.1551 77.9307H69.793V82.2928H74.1551V77.9307Z" fill="#161522"/>
<path d="M78.5171 77.9307H74.1551V82.2928H78.5171V77.9307Z" fill="#161522"/>
<path d="M65.431 82.2928H61.0689V86.6549H65.431V82.2928Z" fill="#161522"/>
<path d="M69.793 82.2928H65.431V86.6549H69.793V82.2928Z" fill="#161522"/>
<path d="M43.6207 86.6549H39.2586V91.0169H43.6207V86.6549Z" fill="#161522"/>
<path d="M56.7068 86.6549H52.3448V91.0169H56.7068V86.6549Z" fill="#161522"/>
<path d="M61.0689 86.6549H56.7068V91.0169H61.0689V86.6549Z" fill="#161522"/>
<path d="M47.9827 91.0169H43.6207V95.379H47.9827V91.0169Z" fill="#161522"/>
</g>
</g>
<defs>
<clipPath id="clip0_47_37">
<rect width="100" height="100" fill="white"/>
</clipPath>
</defs>
</svg>
